{
    "asset" : {
        "generator" : "Khronos glTF Blender I/O v3.4.50",
        "version" : "2.0"
    },
    "extensionsUsed" : [
        "KHR_materials_specular",
        "KHR_materials_ior"
    ],
    "scene" : 0,
    "scenes" : [
        {
            "name" : "Scene",
            "nodes" : [
                0
            ]
        }
    ],
    "nodes" : [
        {
            "mesh" : 0,
            "name" : "Frog Cassettiera",
            "rotation" : [
                0.5,
                -0.5,
                -0.5,
                0.5
            ],
            "scale" : [
                0.009999999776482582,
                0.20749999582767487,
                0.28999999165534973
            ],
            "translation" : [
                -1.6616584062576294,
                0.53718101978302,
                4.746923923492432
            ]
        }
    ],
    "materials" : [
        {
            "doubleSided" : true,
            "name" : "Arredamento",
            "pbrMetallicRoughness" : {
                "baseColorFactor" : [
                    0.7324767112731934,
                    0.7324767112731934,
                    0.7324767112731934,
                    1
                ],
                "metallicFactor" : 0,
                "roughnessFactor" : 0.5
            }
        },
        {
            "doubleSided" : true,
            "extensions" : {
                "KHR_materials_specular" : {
                    "specularColorTexture" : {
                        "index" : 0
                    }
                },
                "KHR_materials_ior" : {
                    "ior" : 1.4500000476837158
                }
            },
            "name" : "base.002",
            "pbrMetallicRoughness" : {
                "baseColorTexture" : {
                    "index" : 1
                },
                "metallicRoughnessTexture" : {
                    "index" : 2
                }
            }
        },
        {
            "doubleSided" : true,
            "name" : "Contorno Scrivanie",
            "pbrMetallicRoughness" : {
                "baseColorFactor" : [
                    0,
                    0,
                    0,
                    1
                ],
                "metallicFactor" : 0.5233644843101501,
                "roughnessFactor" : 0.5
            }
        }
    ],
    "meshes" : [
        {
            "name" : "Cubo.263",
            "primitives" : [
                {
                    "attributes" : {
                        "POSITION" : 0,
                        "TEXCOORD_0" : 1,
                        "NORMAL" : 2
                    },
                    "indices" : 3,
                    "material" : 0
                },
                {
                    "attributes" : {
                        "POSITION" : 4,
                        "TEXCOORD_0" : 5,
                        "NORMAL" : 6
                    },
                    "indices" : 7,
                    "material" : 1
                },
                {
                    "attributes" : {
                        "POSITION" : 8,
                        "TEXCOORD_0" : 9,
                        "NORMAL" : 10
                    },
                    "indices" : 11,
                    "material" : 2
                }
            ]
        }
    ],
    "textures" : [
        {
            "sampler" : 0,
            "source" : 0
        },
        {
            "sampler" : 0,
            "source" : 1
        },
        {
            "sampler" : 0,
            "source" : 2
        }
    ],
    "images" : [
        {
            "bufferView" : 8,
            "mimeType" : "image/png",
            "name" : "Image"
        },
        {
            "bufferView" : 9,
            "mimeType" : "image/png",
            "name" : "Frog Cassettiera_color"
        },
        {
            "bufferView" : 10,
            "mimeType" : "image/png",
            "name" : "Frog Cassettiera_metallic-Frog Cassettiera_roughness"
        }
    ],
    "accessors" : [
        {
            "bufferView" : 0,
            "componentType" : 5126,
            "count" : 722,
            "max" : [
                50.56889724731445,
                1,
                1.001966118812561
            ],
            "min" : [
                -1,
                -1,
                -1.001015067100525
            ],
            "type" : "VEC3"
        },
        {
            "bufferView" : 1,
            "componentType" : 5126,
            "count" : 722,
            "type" : "VEC2"
        },
        {
            "bufferView" : 2,
            "componentType" : 5126,
            "count" : 722,
            "type" : "VEC3"
        },
        {
            "bufferView" : 3,
            "componentType" : 5123,
            "count" : 2178,
            "type" : "SCALAR"
        },
        {
            "bufferView" : 4,
            "componentType" : 5126,
            "count" : 6632,
            "max" : [
                44.255027770996094,
                0.10320550948381424,
                -0.9975482225418091
            ],
            "min" : [
                4.109440803527832,
                -0.8461058735847473,
                -1.0665137767791748
            ],
            "type" : "VEC3"
        },
        {
            "bufferView" : 5,
            "componentType" : 5126,
            "count" : 6632,
            "type" : "VEC2"
        },
        {
            "bufferView" : 6,
            "componentType" : 5126,
            "count" : 6632,
            "type" : "VEC3"
        },
        {
            "bufferView" : 7,
            "componentType" : 5123,
            "count" : 35700,
            "type" : "SCALAR"
        },
        {
            "bufferView" : 11,
            "componentType" : 5126,
            "count" : 2262,
            "max" : [
                52.99290084838867,
                1,
                0.9433159828186035
            ],
            "min" : [
                -1.0000004768371582,
                -1,
                -1.0507237911224365
            ],
            "type" : "VEC3"
        },
        {
            "bufferView" : 12,
            "componentType" : 5126,
            "count" : 2262,
            "type" : "VEC2"
        },
        {
            "bufferView" : 13,
            "componentType" : 5126,
            "count" : 2262,
            "type" : "VEC3"
        },
        {
            "bufferView" : 14,
            "componentType" : 5123,
            "count" : 4809,
            "type" : "SCALAR"
        }
    ],
    "bufferViews" : [
        {
            "buffer" : 0,
            "byteLength" : 8664,
            "byteOffset" : 0,
            "target" : 34962
        },
        {
            "buffer" : 0,
            "byteLength" : 5776,
            "byteOffset" : 8664,
            "target" : 34962
        },
        {
            "buffer" : 0,
            "byteLength" : 8664,
            "byteOffset" : 14440,
            "target" : 34962
        },
        {
            "buffer" : 0,
            "byteLength" : 4356,
            "byteOffset" : 23104,
            "target" : 34963
        },
        {
            "buffer" : 0,
            "byteLength" : 79584,
            "byteOffset" : 27460,
            "target" : 34962
        },
        {
            "buffer" : 0,
            "byteLength" : 53056,
            "byteOffset" : 107044,
            "target" : 34962
        },
        {
            "buffer" : 0,
            "byteLength" : 79584,
            "byteOffset" : 160100,
            "target" : 34962
        },
        {
            "buffer" : 0,
            "byteLength" : 71400,
            "byteOffset" : 239684,
            "target" : 34963
        },
        {
            "buffer" : 0,
            "byteLength" : 41519,
            "byteOffset" : 311084
        },
        {
            "buffer" : 0,
            "byteLength" : 39742,
            "byteOffset" : 352604
        },
        {
            "buffer" : 0,
            "byteLength" : 36050,
            "byteOffset" : 392348
        },
        {
            "buffer" : 0,
            "byteLength" : 27144,
            "byteOffset" : 428400,
            "target" : 34962
        },
        {
            "buffer" : 0,
            "byteLength" : 18096,
            "byteOffset" : 455544,
            "target" : 34962
        },
        {
            "buffer" : 0,
            "byteLength" : 27144,
            "byteOffset" : 473640,
            "target" : 34962
        },
        {
            "buffer" : 0,
            "byteLength" : 9618,
            "byteOffset" : 500784,
            "target" : 34963
        }
    ],
    "samplers" : [
        {
            "magFilter" : 9729,
            "minFilter" : 9987
        }
    ],
    "buffers" : [
        {
            "byteLength" : 510404,
            "uri" : "data:application/octet-stream;base64,"
        }
    ]
}
