{
    "asset" : {
        "generator" : "Khronos glTF Blender I/O v3.4.50",
        "version" : "2.0"
    },
    "scene" : 0,
    "scenes" : [
        {
            "name" : "Scene",
            "nodes" : [
                0,
                1,
                2,
                3
            ]
        }
    ],
    "nodes" : [
        {
            "mesh" : 0,
            "name" : "Armadio Opaco Corpo Anta Sx",
            "rotation" : [
                0.5,
                -0.5,
                -0.5,
                0.5
            ],
            "scale" : [
                0.6600000262260437,
                0.007499999832361937,
                0.22499999403953552
            ],
            "translation" : [
                1.4973900318145752,
                1.4263399839401245,
                4.605710029602051
            ]
        },
        {
            "mesh" : 1,
            "name" : "Armadio Opaco Corpo Anta Dx",
            "rotation" : [
                0.5,
                -0.5,
                -0.5,
                0.5
            ],
            "scale" : [
                0.6600000262260437,
                0.007499999832361937,
                0.22499999403953552
            ],
            "translation" : [
                1.0440900325775146,
                1.4222700595855713,
                4.605710029602051
            ]
        },
        {
            "mesh" : 2,
            "name" : "Armadio Opaco Corpo",
            "scale" : [
                0.4399999976158142,
                0.007499999832361937,
                0.20250000059604645
            ],
            "translation" : [
                1.2695200443267822,
                1.1922695636749268,
                4.8177900314331055
            ]
        },
        {
            "mesh" : 3,
            "name" : "Armadio Opaco Basso",
            "rotation" : [
                0,
                0,
                -0.7071068286895752,
                0.7071068286895752
            ],
            "scale" : [
                0.009999999776482582,
                0.45500001311302185,
                0.22300000488758087
            ],
            "translation" : [
                1.2695200443267822,
                0.7562389969825745,
                4.822539806365967
            ]
        }
    ],
    "materials" : [
        {
            "doubleSided" : true,
            "name" : "Arredamento.001",
            "pbrMetallicRoughness" : {
                "baseColorFactor" : [
                    0.7324767112731934,
                    0.7324767112731934,
                    0.7324767112731934,
                    1
                ],
                "metallicFactor" : 0,
                "roughnessFactor" : 0.5
            }
        },
        {
            "doubleSided" : true,
            "name" : "Contorno Scrivanie.001",
            "pbrMetallicRoughness" : {
                "baseColorFactor" : [
                    0,
                    0,
                    0,
                    1
                ],
                "metallicFactor" : 0.5233644843101501,
                "roughnessFactor" : 0.5
            }
        }
    ],
    "meshes" : [
        {
            "name" : "Cubo.039",
            "primitives" : [
                {
                    "attributes" : {
                        "POSITION" : 0,
                        "TEXCOORD_0" : 1,
                        "NORMAL" : 2
                    },
                    "indices" : 3,
                    "material" : 0
                },
                {
                    "attributes" : {
                        "POSITION" : 4,
                        "TEXCOORD_0" : 5,
                        "NORMAL" : 6
                    },
                    "indices" : 7,
                    "material" : 1
                }
            ]
        },
        {
            "name" : "Cubo.035",
            "primitives" : [
                {
                    "attributes" : {
                        "POSITION" : 8,
                        "TEXCOORD_0" : 9,
                        "NORMAL" : 10
                    },
                    "indices" : 3,
                    "material" : 0
                },
                {
                    "attributes" : {
                        "POSITION" : 11,
                        "TEXCOORD_0" : 12,
                        "NORMAL" : 13
                    },
                    "indices" : 7,
                    "material" : 1
                }
            ]
        },
        {
            "name" : "Cubo.037",
            "primitives" : [
                {
                    "attributes" : {
                        "POSITION" : 14,
                        "TEXCOORD_0" : 15,
                        "NORMAL" : 16
                    },
                    "indices" : 17,
                    "material" : 0
                },
                {
                    "attributes" : {
                        "POSITION" : 18,
                        "TEXCOORD_0" : 19,
                        "NORMAL" : 20
                    },
                    "indices" : 21,
                    "material" : 1
                }
            ]
        },
        {
            "name" : "Cubo.078",
            "primitives" : [
                {
                    "attributes" : {
                        "POSITION" : 22,
                        "TEXCOORD_0" : 23,
                        "NORMAL" : 24
                    },
                    "indices" : 25,
                    "material" : 0
                },
                {
                    "attributes" : {
                        "POSITION" : 26,
                        "TEXCOORD_0" : 27,
                        "NORMAL" : 28
                    },
                    "indices" : 29,
                    "material" : 1
                }
            ]
        }
    ],
    "accessors" : [
        {
            "bufferView" : 0,
            "componentType" : 5126,
            "count" : 24,
            "max" : [
                1,
                1,
                1
            ],
            "min" : [
                -1,
                -1,
                -1
            ],
            "type" : "VEC3"
        },
        {
            "bufferView" : 1,
            "componentType" : 5126,
            "count" : 24,
            "type" : "VEC2"
        },
        {
            "bufferView" : 2,
            "componentType" : 5126,
            "count" : 24,
            "type" : "VEC3"
        },
        {
            "bufferView" : 3,
            "componentType" : 5123,
            "count" : 36,
            "type" : "SCALAR"
        },
        {
            "bufferView" : 4,
            "componentType" : 5126,
            "count" : 1670,
            "max" : [
                0.9157135486602783,
                -0.8985474109649658,
                0.8739557862281799
            ],
            "min" : [
                0.8248052597045898,
                -3.5652146339416504,
                0.8295109868049622
            ],
            "type" : "VEC3"
        },
        {
            "bufferView" : 5,
            "componentType" : 5126,
            "count" : 1670,
            "type" : "VEC2"
        },
        {
            "bufferView" : 6,
            "componentType" : 5126,
            "count" : 1670,
            "type" : "VEC3"
        },
        {
            "bufferView" : 7,
            "componentType" : 5123,
            "count" : 8784,
            "type" : "SCALAR"
        },
        {
            "bufferView" : 8,
            "componentType" : 5126,
            "count" : 24,
            "max" : [
                1,
                1,
                1
            ],
            "min" : [
                -1,
                -1,
                -1
            ],
            "type" : "VEC3"
        },
        {
            "bufferView" : 9,
            "componentType" : 5126,
            "count" : 24,
            "type" : "VEC2"
        },
        {
            "bufferView" : 10,
            "componentType" : 5126,
            "count" : 24,
            "type" : "VEC3"
        },
        {
            "bufferView" : 11,
            "componentType" : 5126,
            "count" : 1670,
            "max" : [
                0.9095470905303955,
                -0.8985474109649658,
                -0.8288444876670837
            ],
            "min" : [
                0.818638801574707,
                -3.5652146339416504,
                -0.8732892870903015
            ],
            "type" : "VEC3"
        },
        {
            "bufferView" : 12,
            "componentType" : 5126,
            "count" : 1670,
            "type" : "VEC2"
        },
        {
            "bufferView" : 13,
            "componentType" : 5126,
            "count" : 1670,
            "type" : "VEC3"
        },
        {
            "bufferView" : 14,
            "componentType" : 5126,
            "count" : 667,
            "max" : [
                1.0369428396224976,
                122.1545639038086,
                1.1250402927398682
            ],
            "min" : [
                -1.0321024656295776,
                -56.70258331298828,
                -1.0777779817581177
            ],
            "type" : "VEC3"
        },
        {
            "bufferView" : 15,
            "componentType" : 5126,
            "count" : 667,
            "type" : "VEC2"
        },
        {
            "bufferView" : 16,
            "componentType" : 5126,
            "count" : 667,
            "type" : "VEC3"
        },
        {
            "bufferView" : 17,
            "componentType" : 5123,
            "count" : 2034,
            "type" : "SCALAR"
        },
        {
            "bufferView" : 18,
            "componentType" : 5126,
            "count" : 92,
            "max" : [
                1.0369428396224976,
                122.1545639038086,
                -1.0779902935028076
            ],
            "min" : [
                -1.0312389135360718,
                119.4878921508789,
                -1.1494791507720947
            ],
            "type" : "VEC3"
        },
        {
            "bufferView" : 19,
            "componentType" : 5126,
            "count" : 92,
            "type" : "VEC2"
        },
        {
            "bufferView" : 20,
            "componentType" : 5126,
            "count" : 92,
            "type" : "VEC3"
        },
        {
            "bufferView" : 21,
            "componentType" : 5123,
            "count" : 537,
            "type" : "SCALAR"
        },
        {
            "bufferView" : 22,
            "componentType" : 5126,
            "count" : 764,
            "max" : [
                73.14291381835938,
                1,
                1.000316858291626
            ],
            "min" : [
                -1,
                -1.0008344650268555,
                -1.0059795379638672
            ],
            "type" : "VEC3"
        },
        {
            "bufferView" : 23,
            "componentType" : 5126,
            "count" : 764,
            "type" : "VEC2"
        },
        {
            "bufferView" : 24,
            "componentType" : 5126,
            "count" : 764,
            "type" : "VEC3"
        },
        {
            "bufferView" : 25,
            "componentType" : 5123,
            "count" : 2142,
            "type" : "SCALAR"
        },
        {
            "bufferView" : 26,
            "componentType" : 5126,
            "count" : 5912,
            "max" : [
                75.54350280761719,
                0.9999989867210388,
                0.7834409475326538
            ],
            "min" : [
                -1.0000019073486328,
                -1.0000009536743164,
                -1.092236876487732
            ],
            "type" : "VEC3"
        },
        {
            "bufferView" : 27,
            "componentType" : 5126,
            "count" : 5912,
            "type" : "VEC2"
        },
        {
            "bufferView" : 28,
            "componentType" : 5126,
            "count" : 5912,
            "type" : "VEC3"
        },
        {
            "bufferView" : 29,
            "componentType" : 5123,
            "count" : 22941,
            "type" : "SCALAR"
        }
    ],
    "bufferViews" : [
        {
            "buffer" : 0,
            "byteLength" : 288,
            "byteOffset" : 0,
            "target" : 34962
        },
        {
            "buffer" : 0,
            "byteLength" : 192,
            "byteOffset" : 288,
            "target" : 34962
        },
        {
            "buffer" : 0,
            "byteLength" : 288,
            "byteOffset" : 480,
            "target" : 34962
        },
        {
            "buffer" : 0,
            "byteLength" : 72,
            "byteOffset" : 768,
            "target" : 34963
        },
        {
            "buffer" : 0,
            "byteLength" : 20040,
            "byteOffset" : 840,
            "target" : 34962
        },
        {
            "buffer" : 0,
            "byteLength" : 13360,
            "byteOffset" : 20880,
            "target" : 34962
        },
        {
            "buffer" : 0,
            "byteLength" : 20040,
            "byteOffset" : 34240,
            "target" : 34962
        },
        {
            "buffer" : 0,
            "byteLength" : 17568,
            "byteOffset" : 54280,
            "target" : 34963
        },
        {
            "buffer" : 0,
            "byteLength" : 288,
            "byteOffset" : 71848,
            "target" : 34962
        },
        {
            "buffer" : 0,
            "byteLength" : 192,
            "byteOffset" : 72136,
            "target" : 34962
        },
        {
            "buffer" : 0,
            "byteLength" : 288,
            "byteOffset" : 72328,
            "target" : 34962
        },
        {
            "buffer" : 0,
            "byteLength" : 20040,
            "byteOffset" : 72616,
            "target" : 34962
        },
        {
            "buffer" : 0,
            "byteLength" : 13360,
            "byteOffset" : 92656,
            "target" : 34962
        },
        {
            "buffer" : 0,
            "byteLength" : 20040,
            "byteOffset" : 106016,
            "target" : 34962
        },
        {
            "buffer" : 0,
            "byteLength" : 8004,
            "byteOffset" : 126056,
            "target" : 34962
        },
        {
            "buffer" : 0,
            "byteLength" : 5336,
            "byteOffset" : 134060,
            "target" : 34962
        },
        {
            "buffer" : 0,
            "byteLength" : 8004,
            "byteOffset" : 139396,
            "target" : 34962
        },
        {
            "buffer" : 0,
            "byteLength" : 4068,
            "byteOffset" : 147400,
            "target" : 34963
        },
        {
            "buffer" : 0,
            "byteLength" : 1104,
            "byteOffset" : 151468,
            "target" : 34962
        },
        {
            "buffer" : 0,
            "byteLength" : 736,
            "byteOffset" : 152572,
            "target" : 34962
        },
        {
            "buffer" : 0,
            "byteLength" : 1104,
            "byteOffset" : 153308,
            "target" : 34962
        },
        {
            "buffer" : 0,
            "byteLength" : 1074,
            "byteOffset" : 154412,
            "target" : 34963
        },
        {
            "buffer" : 0,
            "byteLength" : 9168,
            "byteOffset" : 155488,
            "target" : 34962
        },
        {
            "buffer" : 0,
            "byteLength" : 6112,
            "byteOffset" : 164656,
            "target" : 34962
        },
        {
            "buffer" : 0,
            "byteLength" : 9168,
            "byteOffset" : 170768,
            "target" : 34962
        },
        {
            "buffer" : 0,
            "byteLength" : 4284,
            "byteOffset" : 179936,
            "target" : 34963
        },
        {
            "buffer" : 0,
            "byteLength" : 70944,
            "byteOffset" : 184220,
            "target" : 34962
        },
        {
            "buffer" : 0,
            "byteLength" : 47296,
            "byteOffset" : 255164,
            "target" : 34962
        },
        {
            "buffer" : 0,
            "byteLength" : 70944,
            "byteOffset" : 302460,
            "target" : 34962
        },
        {
            "buffer" : 0,
            "byteLength" : 45882,
            "byteOffset" : 373404,
            "target" : 34963
        }
    ],
    "buffers" : [
        {
            "byteLength" : 419288,
            "uri" : "data:application/octet-stream;base64,"
        }
    ]
}
