{
    "asset" : {
        "generator" : "Khronos glTF Blender I/O v3.4.50",
        "version" : "2.0"
    },
    "scene" : 0,
    "scenes" : [
        {
            "name" : "Scene",
            "nodes" : [
                0,
                1,
                2,
                3
            ]
        }
    ],
    "nodes" : [
        {
            "name" : "Computer Storia 80 Parti",
            "rotation" : [
                -0.5243247747421265,
                -0.4744296967983246,
                -0.4744296967983246,
                0.5243247151374817
            ],
            "scale" : [
                0.1669321060180664,
                0.1669321060180664,
                0.1669321060180664
            ],
            "translation" : [
                1.9028517007827759,
                0.7524753212928772,
                1.9799692630767822
            ]
        },
        {
            "mesh" : 0,
            "name" : "Armadietto Storia 90 OGGI",
            "rotation" : [
                -0.5,
                0.5,
                -0.5,
                0.4999999701976776
            ],
            "scale" : [
                0.009999999776482582,
                0.45500001311302185,
                0.22300000488758087
            ],
            "translation" : [
                1.8988263607025146,
                0.7562389969825745,
                3.3210361003875732
            ]
        },
        {
            "mesh" : 1,
            "name" : "Armadietto Storia 80 90",
            "rotation" : [
                -0.5,
                0.5,
                -0.5,
                0.4999999701976776
            ],
            "scale" : [
                0.009999999776482582,
                0.45500001311302185,
                0.22300000488758087
            ],
            "translation" : [
                1.8988263607025146,
                0.7562389969825745,
                2.4078054428100586
            ]
        },
        {
            "mesh" : 2,
            "name" : "Armadietto Amministrazione",
            "rotation" : [
                -0.5,
                0.5,
                -0.5,
                0.4999999701976776
            ],
            "scale" : [
                0.009999999776482582,
                0.45500001311302185,
                0.22300000488758087
            ],
            "translation" : [
                1.8988300561904907,
                0.7562389969825745,
                1.4958800077438354
            ]
        }
    ],
    "materials" : [
        {
            "doubleSided" : true,
            "name" : "Arredamento",
            "pbrMetallicRoughness" : {
                "baseColorFactor" : [
                    0.7324767112731934,
                    0.7324767112731934,
                    0.7324767112731934,
                    1
                ],
                "metallicFactor" : 0,
                "roughnessFactor" : 0.5
            }
        },
        {
            "doubleSided" : true,
            "name" : "Contorno Scrivanie",
            "pbrMetallicRoughness" : {
                "baseColorFactor" : [
                    0,
                    0,
                    0,
                    1
                ],
                "metallicFactor" : 0.5233644843101501,
                "roughnessFactor" : 0.5
            }
        }
    ],
    "meshes" : [
        {
            "name" : "Cubo.077",
            "primitives" : [
                {
                    "attributes" : {
                        "POSITION" : 0,
                        "TEXCOORD_0" : 1,
                        "NORMAL" : 2
                    },
                    "indices" : 3,
                    "material" : 0
                },
                {
                    "attributes" : {
                        "POSITION" : 4,
                        "TEXCOORD_0" : 5,
                        "NORMAL" : 6
                    },
                    "indices" : 7,
                    "material" : 1
                }
            ]
        },
        {
            "name" : "Cubo.079",
            "primitives" : [
                {
                    "attributes" : {
                        "POSITION" : 8,
                        "TEXCOORD_0" : 9,
                        "NORMAL" : 10
                    },
                    "indices" : 3,
                    "material" : 0
                },
                {
                    "attributes" : {
                        "POSITION" : 11,
                        "TEXCOORD_0" : 12,
                        "NORMAL" : 13
                    },
                    "indices" : 7,
                    "material" : 1
                }
            ]
        },
        {
            "name" : "Cubo.080",
            "primitives" : [
                {
                    "attributes" : {
                        "POSITION" : 14,
                        "TEXCOORD_0" : 15,
                        "NORMAL" : 16
                    },
                    "indices" : 3,
                    "material" : 0
                },
                {
                    "attributes" : {
                        "POSITION" : 17,
                        "TEXCOORD_0" : 18,
                        "NORMAL" : 19
                    },
                    "indices" : 7,
                    "material" : 1
                }
            ]
        }
    ],
    "accessors" : [
        {
            "bufferView" : 0,
            "componentType" : 5126,
            "count" : 764,
            "max" : [
                73.14291381835938,
                1,
                1.000316858291626
            ],
            "min" : [
                -1,
                -1.0008344650268555,
                -1.0059795379638672
            ],
            "type" : "VEC3"
        },
        {
            "bufferView" : 1,
            "componentType" : 5126,
            "count" : 764,
            "type" : "VEC2"
        },
        {
            "bufferView" : 2,
            "componentType" : 5126,
            "count" : 764,
            "type" : "VEC3"
        },
        {
            "bufferView" : 3,
            "componentType" : 5123,
            "count" : 2142,
            "type" : "SCALAR"
        },
        {
            "bufferView" : 4,
            "componentType" : 5126,
            "count" : 5912,
            "max" : [
                75.54350280761719,
                0.9999989867210388,
                0.7834409475326538
            ],
            "min" : [
                -1.0000019073486328,
                -1.0000009536743164,
                -1.092236876487732
            ],
            "type" : "VEC3"
        },
        {
            "bufferView" : 5,
            "componentType" : 5126,
            "count" : 5912,
            "type" : "VEC2"
        },
        {
            "bufferView" : 6,
            "componentType" : 5126,
            "count" : 5912,
            "type" : "VEC3"
        },
        {
            "bufferView" : 7,
            "componentType" : 5123,
            "count" : 22941,
            "type" : "SCALAR"
        },
        {
            "bufferView" : 8,
            "componentType" : 5126,
            "count" : 764,
            "max" : [
                73.14291381835938,
                1,
                1.000316858291626
            ],
            "min" : [
                -1,
                -1.0008344650268555,
                -1.0059795379638672
            ],
            "type" : "VEC3"
        },
        {
            "bufferView" : 9,
            "componentType" : 5126,
            "count" : 764,
            "type" : "VEC2"
        },
        {
            "bufferView" : 10,
            "componentType" : 5126,
            "count" : 764,
            "type" : "VEC3"
        },
        {
            "bufferView" : 11,
            "componentType" : 5126,
            "count" : 5912,
            "max" : [
                75.54350280761719,
                0.9999989867210388,
                0.7834409475326538
            ],
            "min" : [
                -1.0000019073486328,
                -1.0000009536743164,
                -1.092236876487732
            ],
            "type" : "VEC3"
        },
        {
            "bufferView" : 12,
            "componentType" : 5126,
            "count" : 5912,
            "type" : "VEC2"
        },
        {
            "bufferView" : 13,
            "componentType" : 5126,
            "count" : 5912,
            "type" : "VEC3"
        },
        {
            "bufferView" : 14,
            "componentType" : 5126,
            "count" : 764,
            "max" : [
                73.14291381835938,
                1,
                1.000316858291626
            ],
            "min" : [
                -1,
                -1.0008344650268555,
                -1.0059795379638672
            ],
            "type" : "VEC3"
        },
        {
            "bufferView" : 15,
            "componentType" : 5126,
            "count" : 764,
            "type" : "VEC2"
        },
        {
            "bufferView" : 16,
            "componentType" : 5126,
            "count" : 764,
            "type" : "VEC3"
        },
        {
            "bufferView" : 17,
            "componentType" : 5126,
            "count" : 5912,
            "max" : [
                75.54350280761719,
                0.9999989867210388,
                0.7834409475326538
            ],
            "min" : [
                -1.0000019073486328,
                -1.0000009536743164,
                -1.092236876487732
            ],
            "type" : "VEC3"
        },
        {
            "bufferView" : 18,
            "componentType" : 5126,
            "count" : 5912,
            "type" : "VEC2"
        },
        {
            "bufferView" : 19,
            "componentType" : 5126,
            "count" : 5912,
            "type" : "VEC3"
        }
    ],
    "bufferViews" : [
        {
            "buffer" : 0,
            "byteLength" : 9168,
            "byteOffset" : 0,
            "target" : 34962
        },
        {
            "buffer" : 0,
            "byteLength" : 6112,
            "byteOffset" : 9168,
            "target" : 34962
        },
        {
            "buffer" : 0,
            "byteLength" : 9168,
            "byteOffset" : 15280,
            "target" : 34962
        },
        {
            "buffer" : 0,
            "byteLength" : 4284,
            "byteOffset" : 24448,
            "target" : 34963
        },
        {
            "buffer" : 0,
            "byteLength" : 70944,
            "byteOffset" : 28732,
            "target" : 34962
        },
        {
            "buffer" : 0,
            "byteLength" : 47296,
            "byteOffset" : 99676,
            "target" : 34962
        },
        {
            "buffer" : 0,
            "byteLength" : 70944,
            "byteOffset" : 146972,
            "target" : 34962
        },
        {
            "buffer" : 0,
            "byteLength" : 45882,
            "byteOffset" : 217916,
            "target" : 34963
        },
        {
            "buffer" : 0,
            "byteLength" : 9168,
            "byteOffset" : 263800,
            "target" : 34962
        },
        {
            "buffer" : 0,
            "byteLength" : 6112,
            "byteOffset" : 272968,
            "target" : 34962
        },
        {
            "buffer" : 0,
            "byteLength" : 9168,
            "byteOffset" : 279080,
            "target" : 34962
        },
        {
            "buffer" : 0,
            "byteLength" : 70944,
            "byteOffset" : 288248,
            "target" : 34962
        },
        {
            "buffer" : 0,
            "byteLength" : 47296,
            "byteOffset" : 359192,
            "target" : 34962
        },
        {
            "buffer" : 0,
            "byteLength" : 70944,
            "byteOffset" : 406488,
            "target" : 34962
        },
        {
            "buffer" : 0,
            "byteLength" : 9168,
            "byteOffset" : 477432,
            "target" : 34962
        },
        {
            "buffer" : 0,
            "byteLength" : 6112,
            "byteOffset" : 486600,
            "target" : 34962
        },
        {
            "buffer" : 0,
            "byteLength" : 9168,
            "byteOffset" : 492712,
            "target" : 34962
        },
        {
            "buffer" : 0,
            "byteLength" : 70944,
            "byteOffset" : 501880,
            "target" : 34962
        },
        {
            "buffer" : 0,
            "byteLength" : 47296,
            "byteOffset" : 572824,
            "target" : 34962
        },
        {
            "buffer" : 0,
            "byteLength" : 70944,
            "byteOffset" : 620120,
            "target" : 34962
        }
    ],
    "buffers" : [
        {
            "byteLength" : 691064,
            "uri" : "data:application/octet-stream;base64,"
        }
    ]
}
