{
    "asset" : {
        "generator" : "Khronos glTF Blender I/O v3.4.50",
        "version" : "2.0"
    },
    "extensionsUsed" : [
        "KHR_materials_specular",
        "KHR_materials_ior"
    ],
    "scene" : 0,
    "scenes" : [
        {
            "name" : "Scene",
            "nodes" : [
                0,
                1
            ]
        }
    ],
    "nodes" : [
        {
            "mesh" : 0,
            "name" : "Frog Cassettiera",
            "rotation" : [
                0.5,
                -0.5,
                -0.5,
                0.5
            ],
            "scale" : [
                0.009999999776482582,
                0.20749999582767487,
                0.28999999165534973
            ],
            "translation" : [
                -1.6616584062576294,
                0.53718101978302,
                4.746923923492432
            ]
        },
        {
            "mesh" : 1,
            "name" : "Armadio Vetrina Basso",
            "rotation" : [
                0,
                0,
                -0.7071068286895752,
                0.7071068286895752
            ],
            "scale" : [
                0.009999999776482582,
                0.45500001311302185,
                0.22300000488758087
            ],
            "translation" : [
                0.3588779866695404,
                0.7562389969825745,
                4.822539806365967
            ]
        }
    ],
    "materials" : [
        {
            "doubleSided" : true,
            "name" : "Arredamento.001",
            "pbrMetallicRoughness" : {
                "baseColorFactor" : [
                    0.7324767112731934,
                    0.7324767112731934,
                    0.7324767112731934,
                    1
                ],
                "metallicFactor" : 0,
                "roughnessFactor" : 0.5
            }
        },
        {
            "doubleSided" : true,
            "extensions" : {
                "KHR_materials_specular" : {
                    "specularColorFactor" : [
                        0.237135764977738,
                        0.237135764977738,
                        0.237135764977738
                    ]
                },
                "KHR_materials_ior" : {
                    "ior" : 1.4500000476837158
                }
            },
            "name" : "base.001",
            "pbrMetallicRoughness" : {
                "metallicFactor" : 0,
                "roughnessFactor" : 0
            }
        },
        {
            "doubleSided" : true,
            "name" : "Contorno Scrivanie.001",
            "pbrMetallicRoughness" : {
                "baseColorFactor" : [
                    0,
                    0,
                    0,
                    1
                ],
                "metallicFactor" : 0.5233644843101501,
                "roughnessFactor" : 0.5
            }
        },
        {
            "doubleSided" : true,
            "name" : "Arredamento.002",
            "pbrMetallicRoughness" : {
                "baseColorFactor" : [
                    0.7324767112731934,
                    0.7324767112731934,
                    0.7324767112731934,
                    1
                ],
                "metallicFactor" : 0,
                "roughnessFactor" : 0.5
            }
        },
        {
            "doubleSided" : true,
            "name" : "Contorno Scrivanie.002",
            "pbrMetallicRoughness" : {
                "baseColorFactor" : [
                    0,
                    0,
                    0,
                    1
                ],
                "metallicFactor" : 0.5233644843101501,
                "roughnessFactor" : 0.5
            }
        }
    ],
    "meshes" : [
        {
            "name" : "Cubo.001",
            "primitives" : [
                {
                    "attributes" : {
                        "POSITION" : 0,
                        "TEXCOORD_0" : 1,
                        "NORMAL" : 2
                    },
                    "indices" : 3,
                    "material" : 0
                },
                {
                    "attributes" : {
                        "POSITION" : 4,
                        "TEXCOORD_0" : 5,
                        "NORMAL" : 6
                    },
                    "indices" : 7,
                    "material" : 1
                },
                {
                    "attributes" : {
                        "POSITION" : 8,
                        "TEXCOORD_0" : 9,
                        "NORMAL" : 10
                    },
                    "indices" : 11,
                    "material" : 2
                }
            ]
        },
        {
            "name" : "Cubo.075",
            "primitives" : [
                {
                    "attributes" : {
                        "POSITION" : 12,
                        "TEXCOORD_0" : 13,
                        "NORMAL" : 14
                    },
                    "indices" : 15,
                    "material" : 3
                },
                {
                    "attributes" : {
                        "POSITION" : 16,
                        "TEXCOORD_0" : 17,
                        "NORMAL" : 18
                    },
                    "indices" : 19,
                    "material" : 4
                }
            ]
        }
    ],
    "accessors" : [
        {
            "bufferView" : 0,
            "componentType" : 5126,
            "count" : 722,
            "max" : [
                50.56889724731445,
                1,
                1.001966118812561
            ],
            "min" : [
                -1,
                -1,
                -1.001015067100525
            ],
            "type" : "VEC3"
        },
        {
            "bufferView" : 1,
            "componentType" : 5126,
            "count" : 722,
            "type" : "VEC2"
        },
        {
            "bufferView" : 2,
            "componentType" : 5126,
            "count" : 722,
            "type" : "VEC3"
        },
        {
            "bufferView" : 3,
            "componentType" : 5123,
            "count" : 2178,
            "type" : "SCALAR"
        },
        {
            "bufferView" : 4,
            "componentType" : 5126,
            "count" : 7000,
            "max" : [
                44.255027770996094,
                0.10320550948381424,
                -0.9975482225418091
            ],
            "min" : [
                4.109440803527832,
                -0.8461058735847473,
                -1.0665137767791748
            ],
            "type" : "VEC3"
        },
        {
            "bufferView" : 5,
            "componentType" : 5126,
            "count" : 7000,
            "type" : "VEC2"
        },
        {
            "bufferView" : 6,
            "componentType" : 5126,
            "count" : 7000,
            "type" : "VEC3"
        },
        {
            "bufferView" : 7,
            "componentType" : 5123,
            "count" : 35700,
            "type" : "SCALAR"
        },
        {
            "bufferView" : 8,
            "componentType" : 5126,
            "count" : 2252,
            "max" : [
                52.99290084838867,
                1,
                0.9433159828186035
            ],
            "min" : [
                -1.0000004768371582,
                -1,
                -1.0507237911224365
            ],
            "type" : "VEC3"
        },
        {
            "bufferView" : 9,
            "componentType" : 5126,
            "count" : 2252,
            "type" : "VEC2"
        },
        {
            "bufferView" : 10,
            "componentType" : 5126,
            "count" : 2252,
            "type" : "VEC3"
        },
        {
            "bufferView" : 11,
            "componentType" : 5123,
            "count" : 4809,
            "type" : "SCALAR"
        },
        {
            "bufferView" : 12,
            "componentType" : 5126,
            "count" : 764,
            "max" : [
                73.14291381835938,
                1,
                1.000316858291626
            ],
            "min" : [
                -1,
                -1.0008344650268555,
                -1.0059795379638672
            ],
            "type" : "VEC3"
        },
        {
            "bufferView" : 13,
            "componentType" : 5126,
            "count" : 764,
            "type" : "VEC2"
        },
        {
            "bufferView" : 14,
            "componentType" : 5126,
            "count" : 764,
            "type" : "VEC3"
        },
        {
            "bufferView" : 15,
            "componentType" : 5123,
            "count" : 2142,
            "type" : "SCALAR"
        },
        {
            "bufferView" : 16,
            "componentType" : 5126,
            "count" : 5912,
            "max" : [
                75.54350280761719,
                0.9999989867210388,
                0.7834409475326538
            ],
            "min" : [
                -1.0000019073486328,
                -1.0000009536743164,
                -1.0922540426254272
            ],
            "type" : "VEC3"
        },
        {
            "bufferView" : 17,
            "componentType" : 5126,
            "count" : 5912,
            "type" : "VEC2"
        },
        {
            "bufferView" : 18,
            "componentType" : 5126,
            "count" : 5912,
            "type" : "VEC3"
        },
        {
            "bufferView" : 19,
            "componentType" : 5123,
            "count" : 22941,
            "type" : "SCALAR"
        }
    ],
    "bufferViews" : [
        {
            "buffer" : 0,
            "byteLength" : 8664,
            "byteOffset" : 0,
            "target" : 34962
        },
        {
            "buffer" : 0,
            "byteLength" : 5776,
            "byteOffset" : 8664,
            "target" : 34962
        },
        {
            "buffer" : 0,
            "byteLength" : 8664,
            "byteOffset" : 14440,
            "target" : 34962
        },
        {
            "buffer" : 0,
            "byteLength" : 4356,
            "byteOffset" : 23104,
            "target" : 34963
        },
        {
            "buffer" : 0,
            "byteLength" : 84000,
            "byteOffset" : 27460,
            "target" : 34962
        },
        {
            "buffer" : 0,
            "byteLength" : 56000,
            "byteOffset" : 111460,
            "target" : 34962
        },
        {
            "buffer" : 0,
            "byteLength" : 84000,
            "byteOffset" : 167460,
            "target" : 34962
        },
        {
            "buffer" : 0,
            "byteLength" : 71400,
            "byteOffset" : 251460,
            "target" : 34963
        },
        {
            "buffer" : 0,
            "byteLength" : 27024,
            "byteOffset" : 322860,
            "target" : 34962
        },
        {
            "buffer" : 0,
            "byteLength" : 18016,
            "byteOffset" : 349884,
            "target" : 34962
        },
        {
            "buffer" : 0,
            "byteLength" : 27024,
            "byteOffset" : 367900,
            "target" : 34962
        },
        {
            "buffer" : 0,
            "byteLength" : 9618,
            "byteOffset" : 394924,
            "target" : 34963
        },
        {
            "buffer" : 0,
            "byteLength" : 9168,
            "byteOffset" : 404544,
            "target" : 34962
        },
        {
            "buffer" : 0,
            "byteLength" : 6112,
            "byteOffset" : 413712,
            "target" : 34962
        },
        {
            "buffer" : 0,
            "byteLength" : 9168,
            "byteOffset" : 419824,
            "target" : 34962
        },
        {
            "buffer" : 0,
            "byteLength" : 4284,
            "byteOffset" : 428992,
            "target" : 34963
        },
        {
            "buffer" : 0,
            "byteLength" : 70944,
            "byteOffset" : 433276,
            "target" : 34962
        },
        {
            "buffer" : 0,
            "byteLength" : 47296,
            "byteOffset" : 504220,
            "target" : 34962
        },
        {
            "buffer" : 0,
            "byteLength" : 70944,
            "byteOffset" : 551516,
            "target" : 34962
        },
        {
            "buffer" : 0,
            "byteLength" : 45882,
            "byteOffset" : 622460,
            "target" : 34963
        }
    ],
    "buffers" : [
        {
            "byteLength" : 668344,
            "uri" : "data:application/octet-stream;base64,"
        }
    ]
}
