{
    "asset" : {
        "generator" : "Khronos glTF Blender I/O v3.4.50",
        "version" : "2.0"
    },
    "extensionsUsed" : [
        "KHR_materials_specular",
        "KHR_materials_ior"
    ],
    "scene" : 0,
    "scenes" : [
        {
            "name" : "Scene",
            "nodes" : [
                0
            ]
        }
    ],
    "nodes" : [
        {
            "mesh" : 0,
            "name" : "Computer Storia Oggi",
            "rotation" : [
                0.18408580124378204,
                0.6827242374420166,
                -0.6827242970466614,
                0.18408578634262085
            ],
            "scale" : [
                0.023124855011701584,
                0.023124855011701584,
                0.0317157506942749
            ],
            "translation" : [
                1.9461153745651245,
                0.9562322497367859,
                3.4584622383117676
            ]
        }
    ],
    "materials" : [
        {
            "doubleSided" : true,
            "extensions" : {
                "KHR_materials_specular" : {
                    "specularColorTexture" : {
                        "index" : 0
                    }
                },
                "KHR_materials_ior" : {
                    "ior" : 1.4500000476837158
                }
            },
            "name" : "base.002",
            "pbrMetallicRoughness" : {
                "baseColorTexture" : {
                    "index" : 1
                },
                "metallicRoughnessTexture" : {
                    "index" : 2
                }
            }
        },
        {
            "doubleSided" : true,
            "name" : "desktop",
            "pbrMetallicRoughness" : {
                "baseColorTexture" : {
                    "index" : 3
                },
                "metallicFactor" : 0,
                "roughnessFactor" : 0.5
            }
        }
    ],
    "meshes" : [
        {
            "name" : "TV.001",
            "primitives" : [
                {
                    "attributes" : {
                        "POSITION" : 0,
                        "TEXCOORD_0" : 1,
                        "NORMAL" : 2
                    },
                    "indices" : 3,
                    "material" : 0
                },
                {
                    "attributes" : {
                        "POSITION" : 4,
                        "TEXCOORD_0" : 5,
                        "NORMAL" : 6
                    },
                    "indices" : 7,
                    "material" : 1
                }
            ]
        }
    ],
    "textures" : [
        {
            "sampler" : 0,
            "source" : 0
        },
        {
            "sampler" : 0,
            "source" : 1
        },
        {
            "sampler" : 0,
            "source" : 2
        },
        {
            "sampler" : 0,
            "source" : 3
        }
    ],
    "images" : [
        {
            "bufferView" : 4,
            "mimeType" : "image/png",
            "name" : "Image"
        },
        {
            "bufferView" : 5,
            "mimeType" : "image/png",
            "name" : "Frog Cassettiera_color"
        },
        {
            "bufferView" : 6,
            "mimeType" : "image/png",
            "name" : "Frog Cassettiera_metallic-Frog Cassettiera_roughness"
        },
        {
            "bufferView" : 11,
            "mimeType" : "image/png",
            "name" : "PROVASFONDOMAIN"
        }
    ],
    "accessors" : [
        {
            "bufferView" : 0,
            "componentType" : 5126,
            "count" : 474,
            "max" : [
                3.7187156677246094,
                10.975011825561523,
                6.056344985961914
            ],
            "min" : [
                -1.1264190673828125,
                -10.975015640258789,
                -5.910346984863281
            ],
            "type" : "VEC3"
        },
        {
            "bufferView" : 1,
            "componentType" : 5126,
            "count" : 474,
            "type" : "VEC2"
        },
        {
            "bufferView" : 2,
            "componentType" : 5126,
            "count" : 474,
            "type" : "VEC3"
        },
        {
            "bufferView" : 3,
            "componentType" : 5123,
            "count" : 1212,
            "type" : "SCALAR"
        },
        {
            "bufferView" : 7,
            "componentType" : 5126,
            "count" : 34,
            "max" : [
                1.6059761047363281,
                10.763867378234863,
                4.990550994873047
            ],
            "min" : [
                -0.7918701171875,
                -10.763877868652344,
                -5.597450256347656
            ],
            "type" : "VEC3"
        },
        {
            "bufferView" : 8,
            "componentType" : 5126,
            "count" : 34,
            "type" : "VEC2"
        },
        {
            "bufferView" : 9,
            "componentType" : 5126,
            "count" : 34,
            "type" : "VEC3"
        },
        {
            "bufferView" : 10,
            "componentType" : 5123,
            "count" : 96,
            "type" : "SCALAR"
        }
    ],
    "bufferViews" : [
        {
            "buffer" : 0,
            "byteLength" : 5688,
            "byteOffset" : 0,
            "target" : 34962
        },
        {
            "buffer" : 0,
            "byteLength" : 3792,
            "byteOffset" : 5688,
            "target" : 34962
        },
        {
            "buffer" : 0,
            "byteLength" : 5688,
            "byteOffset" : 9480,
            "target" : 34962
        },
        {
            "buffer" : 0,
            "byteLength" : 2424,
            "byteOffset" : 15168,
            "target" : 34963
        },
        {
            "buffer" : 0,
            "byteLength" : 41519,
            "byteOffset" : 17592
        },
        {
            "buffer" : 0,
            "byteLength" : 39742,
            "byteOffset" : 59112
        },
        {
            "buffer" : 0,
            "byteLength" : 36050,
            "byteOffset" : 98856
        },
        {
            "buffer" : 0,
            "byteLength" : 408,
            "byteOffset" : 134908,
            "target" : 34962
        },
        {
            "buffer" : 0,
            "byteLength" : 272,
            "byteOffset" : 135316,
            "target" : 34962
        },
        {
            "buffer" : 0,
            "byteLength" : 408,
            "byteOffset" : 135588,
            "target" : 34962
        },
        {
            "buffer" : 0,
            "byteLength" : 192,
            "byteOffset" : 135996,
            "target" : 34963
        },
        {
            "buffer" : 0,
            "byteLength" : 407101,
            "byteOffset" : 136188
        }
    ],
    "samplers" : [
        {
            "magFilter" : 9729,
            "minFilter" : 9987
        }
    ],
    "buffers" : [
        {
            "byteLength" : 543292,
            "uri" : "data:application/octet-stream;base64,"
        }
    ]
}
