{
    "asset" : {
        "generator" : "Khronos glTF Blender I/O v3.4.50",
        "version" : "2.0"
    },
    "extensionsUsed" : [
        "KHR_materials_specular",
        "KHR_materials_ior"
    ],
    "scene" : 0,
    "scenes" : [
        {
            "name" : "Scene",
            "nodes" : [
                0
            ]
        }
    ],
    "nodes" : [
        {
            "mesh" : 0,
            "name" : "Ciro Monitor",
            "rotation" : [
                0.6919103860855103,
                0.14580819010734558,
                -0.14580819010734558,
                0.6919103860855103
            ],
            "scale" : [
                0.2250000238418579,
                0.15000000596046448,
                0.15000000596046448
            ],
            "translation" : [
                -1.264716386795044,
                0.9431520104408264,
                1.6798503398895264
            ]
        }
    ],
    "materials" : [
        {
            "doubleSided" : true,
            "name" : "desktop",
            "pbrMetallicRoughness" : {
                "baseColorTexture" : {
                    "index" : 0
                },
                "metallicFactor" : 0,
                "roughnessFactor" : 0.5
            }
        },
        {
            "doubleSided" : true,
            "extensions" : {
                "KHR_materials_specular" : {
                    "specularColorFactor" : [
                        0.237135764977738,
                        0.237135764977738,
                        0.237135764977738
                    ]
                },
                "KHR_materials_ior" : {
                    "ior" : 1.4500000476837158
                }
            },
            "name" : "base.002",
            "pbrMetallicRoughness" : {
                "metallicFactor" : 0,
                "roughnessFactor" : 0
            }
        }
    ],
    "meshes" : [
        {
            "name" : "Plane.011",
            "primitives" : [
                {
                    "attributes" : {
                        "POSITION" : 0,
                        "TEXCOORD_0" : 1,
                        "NORMAL" : 2
                    },
                    "indices" : 3,
                    "material" : 0
                },
                {
                    "attributes" : {
                        "POSITION" : 4,
                        "TEXCOORD_0" : 5,
                        "NORMAL" : 6
                    },
                    "indices" : 7,
                    "material" : 1
                }
            ]
        }
    ],
    "textures" : [
        {
            "sampler" : 0,
            "source" : 0
        }
    ],
    "images" : [
        {
            "bufferView" : 4,
            "mimeType" : "image/png",
            "name" : "test"
        }
    ],
    "accessors" : [
        {
            "bufferView" : 0,
            "componentType" : 5126,
            "count" : 79,
            "max" : [
                0.9592055082321167,
                -0.015825094655156136,
                0.9026429653167725
            ],
            "min" : [
                -0.9592055082321167,
                -0.015825094655156136,
                -0.9354389905929565
            ],
            "type" : "VEC3"
        },
        {
            "bufferView" : 1,
            "componentType" : 5126,
            "count" : 79,
            "type" : "VEC2"
        },
        {
            "bufferView" : 2,
            "componentType" : 5126,
            "count" : 79,
            "type" : "VEC3"
        },
        {
            "bufferView" : 3,
            "componentType" : 5123,
            "count" : 300,
            "type" : "SCALAR"
        },
        {
            "bufferView" : 5,
            "componentType" : 5126,
            "count" : 601,
            "max" : [
                1.0000548362731934,
                0.34280717372894287,
                1.3675503730773926
            ],
            "min" : [
                -1,
                -0.6251384019851685,
                -1
            ],
            "type" : "VEC3"
        },
        {
            "bufferView" : 6,
            "componentType" : 5126,
            "count" : 601,
            "type" : "VEC2"
        },
        {
            "bufferView" : 7,
            "componentType" : 5126,
            "count" : 601,
            "type" : "VEC3"
        },
        {
            "bufferView" : 8,
            "componentType" : 5123,
            "count" : 2526,
            "type" : "SCALAR"
        }
    ],
    "bufferViews" : [
        {
            "buffer" : 0,
            "byteLength" : 948,
            "byteOffset" : 0,
            "target" : 34962
        },
        {
            "buffer" : 0,
            "byteLength" : 632,
            "byteOffset" : 948,
            "target" : 34962
        },
        {
            "buffer" : 0,
            "byteLength" : 948,
            "byteOffset" : 1580,
            "target" : 34962
        },
        {
            "buffer" : 0,
            "byteLength" : 600,
            "byteOffset" : 2528,
            "target" : 34963
        },
        {
            "buffer" : 0,
            "byteLength" : 110910,
            "byteOffset" : 3128
        },
        {
            "buffer" : 0,
            "byteLength" : 7212,
            "byteOffset" : 114040,
            "target" : 34962
        },
        {
            "buffer" : 0,
            "byteLength" : 4808,
            "byteOffset" : 121252,
            "target" : 34962
        },
        {
            "buffer" : 0,
            "byteLength" : 7212,
            "byteOffset" : 126060,
            "target" : 34962
        },
        {
            "buffer" : 0,
            "byteLength" : 5052,
            "byteOffset" : 133272,
            "target" : 34963
        }
    ],
    "samplers" : [
        {
            "magFilter" : 9729,
            "minFilter" : 9987
        }
    ],
    "buffers" : [
        {
            "byteLength" : 138324,
            "uri" : "data:application/octet-stream;base64,"
        }
    ]
}
