{
    "asset" : {
        "generator" : "Khronos glTF Blender I/O v3.4.50",
        "version" : "2.0"
    },
    "extensionsUsed" : [
        "KHR_materials_specular",
        "KHR_materials_ior"
    ],
    "scene" : 0,
    "scenes" : [
        {
            "name" : "Scene",
            "nodes" : [
                0,
                1
            ]
        }
    ],
    "nodes" : [
        {
            "mesh" : 0,
            "name" : "Bianco Cestino",
            "rotation" : [
                0.70710688829422,
                0,
                0,
                0.7071066498756409
            ],
            "scale" : [
                0.019999999552965164,
                0.019999999552965164,
                0.014999999664723873
            ],
            "translation" : [
                -0.6161634922027588,
                -0.03375763073563576,
                -2.1693570613861084
            ]
        },
        {
            "mesh" : 1,
            "name" : "Lello Cestino",
            "rotation" : [
                0.70710688829422,
                0,
                0,
                0.7071066498756409
            ],
            "scale" : [
                0.019999999552965164,
                0.019999999552965164,
                0.014999999664723873
            ],
            "translation" : [
                -1.1754517555236816,
                -0.03375763073563576,
                -4.404364585876465
            ]
        }
    ],
    "materials" : [
        {
            "doubleSided" : true,
            "extensions" : {
                "KHR_materials_specular" : {
                    "specularColorFactor" : [
                        2.1295720052522373,
                        2.1295720052522373,
                        2.1295720052522373
                    ]
                },
                "KHR_materials_ior" : {
                    "ior" : 1.4500000476837158
                }
            },
            "name" : "cestino",
            "pbrMetallicRoughness" : {
                "baseColorFactor" : [
                    0.20204462110996246,
                    0.2115686535835266,
                    0.2004564106464386,
                    1
                ],
                "metallicFactor" : 0,
                "roughnessFactor" : 0.9900000095367432
            }
        }
    ],
    "meshes" : [
        {
            "name" : "Basket",
            "primitives" : [
                {
                    "attributes" : {
                        "POSITION" : 0,
                        "TEXCOORD_0" : 1,
                        "NORMAL" : 2
                    },
                    "indices" : 3,
                    "material" : 0
                }
            ]
        },
        {
            "name" : "Basket.002",
            "primitives" : [
                {
                    "attributes" : {
                        "POSITION" : 4,
                        "TEXCOORD_0" : 5,
                        "NORMAL" : 6
                    },
                    "indices" : 3,
                    "material" : 0
                }
            ]
        }
    ],
    "accessors" : [
        {
            "bufferView" : 0,
            "componentType" : 5126,
            "count" : 1310,
            "max" : [
                8.523097038269043,
                2.6140785217285156,
                -1.7220547199249268
            ],
            "min" : [
                -5.213812351226807,
                -11.122832298278809,
                -19.2152099609375
            ],
            "type" : "VEC3"
        },
        {
            "bufferView" : 1,
            "componentType" : 5126,
            "count" : 1310,
            "type" : "VEC2"
        },
        {
            "bufferView" : 2,
            "componentType" : 5126,
            "count" : 1310,
            "type" : "VEC3"
        },
        {
            "bufferView" : 3,
            "componentType" : 5123,
            "count" : 7416,
            "type" : "SCALAR"
        },
        {
            "bufferView" : 4,
            "componentType" : 5126,
            "count" : 1310,
            "max" : [
                8.523097038269043,
                2.6140785217285156,
                -1.7220547199249268
            ],
            "min" : [
                -5.213812351226807,
                -11.122832298278809,
                -19.2152099609375
            ],
            "type" : "VEC3"
        },
        {
            "bufferView" : 5,
            "componentType" : 5126,
            "count" : 1310,
            "type" : "VEC2"
        },
        {
            "bufferView" : 6,
            "componentType" : 5126,
            "count" : 1310,
            "type" : "VEC3"
        }
    ],
    "bufferViews" : [
        {
            "buffer" : 0,
            "byteLength" : 15720,
            "byteOffset" : 0,
            "target" : 34962
        },
        {
            "buffer" : 0,
            "byteLength" : 10480,
            "byteOffset" : 15720,
            "target" : 34962
        },
        {
            "buffer" : 0,
            "byteLength" : 15720,
            "byteOffset" : 26200,
            "target" : 34962
        },
        {
            "buffer" : 0,
            "byteLength" : 14832,
            "byteOffset" : 41920,
            "target" : 34963
        },
        {
            "buffer" : 0,
            "byteLength" : 15720,
            "byteOffset" : 56752,
            "target" : 34962
        },
        {
            "buffer" : 0,
            "byteLength" : 10480,
            "byteOffset" : 72472,
            "target" : 34962
        },
        {
            "buffer" : 0,
            "byteLength" : 15720,
            "byteOffset" : 82952,
            "target" : 34962
        }
    ],
    "buffers" : [
        {
            "byteLength" : 98672,
            "uri" : "data:application/octet-stream;base64,"
        }
    ]
}
