{
    "asset" : {
        "generator" : "Khronos glTF Blender I/O v3.4.50",
        "version" : "2.0"
    },
    "extensionsUsed" : [
        "KHR_materials_specular",
        "KHR_materials_ior"
    ],
    "scene" : 0,
    "scenes" : [
        {
            "name" : "Scene",
            "nodes" : [
                0
            ]
        }
    ],
    "nodes" : [
        {
            "mesh" : 0,
            "name" : "Ciro Sedia",
            "rotation" : [
                0.6747498512268066,
                0.21145370602607727,
                -0.21145375072956085,
                0.6747498512268066
            ],
            "scale" : [
                0.030000001192092896,
                0.02500000037252903,
                0.029999999329447746
            ],
            "translation" : [
                -0.8756198287010193,
                0.004999931436032057,
                2.411752939224243
            ]
        }
    ],
    "materials" : [
        {
            "doubleSided" : true,
            "extensions" : {
                "KHR_materials_specular" : {
                    "specularColorFactor" : [
                        0,
                        0,
                        0
                    ]
                },
                "KHR_materials_ior" : {
                    "ior" : 1.4500000476837158
                }
            },
            "name" : "Sedia",
            "pbrMetallicRoughness" : {
                "baseColorFactor" : [
                    0.022173894569277763,
                    0.022173894569277763,
                    0.02121901698410511,
                    1
                ],
                "metallicFactor" : 0
            }
        }
    ],
    "meshes" : [
        {
            "name" : "Chair.008",
            "primitives" : [
                {
                    "attributes" : {
                        "POSITION" : 0,
                        "TEXCOORD_0" : 1,
                        "NORMAL" : 2
                    },
                    "indices" : 3,
                    "material" : 0
                }
            ]
        }
    ],
    "accessors" : [
        {
            "bufferView" : 0,
            "componentType" : 5126,
            "count" : 39151,
            "max" : [
                10.092288970947266,
                11.5745849609375,
                0.02952590212225914
            ],
            "min" : [
                -10.167875289916992,
                -10.566875457763672,
                -33.628639221191406
            ],
            "type" : "VEC3"
        },
        {
            "bufferView" : 1,
            "componentType" : 5126,
            "count" : 39151,
            "type" : "VEC2"
        },
        {
            "bufferView" : 2,
            "componentType" : 5126,
            "count" : 39151,
            "type" : "VEC3"
        },
        {
            "bufferView" : 3,
            "componentType" : 5123,
            "count" : 39153,
            "type" : "SCALAR"
        }
    ],
    "bufferViews" : [
        {
            "buffer" : 0,
            "byteLength" : 469812,
            "byteOffset" : 0,
            "target" : 34962
        },
        {
            "buffer" : 0,
            "byteLength" : 313208,
            "byteOffset" : 469812,
            "target" : 34962
        },
        {
            "buffer" : 0,
            "byteLength" : 469812,
            "byteOffset" : 783020,
            "target" : 34962
        },
        {
            "buffer" : 0,
            "byteLength" : 78306,
            "byteOffset" : 1252832,
            "target" : 34963
        }
    ],
    "buffers" : [
        {
            "byteLength" : 1331140,
            "uri" : "data:application/octet-stream;base64,"
        }
    ]
}
