{
    "asset" : {
        "generator" : "Khronos glTF Blender I/O v3.4.50",
        "version" : "2.0"
    },
    "scene" : 0,
    "scenes" : [
        {
            "name" : "Scene",
            "nodes" : [
                0
            ]
        }
    ],
    "nodes" : [
        {
            "mesh" : 0,
            "name" : "Lello Tappetino Blu Mouse",
            "rotation" : [
                0.6115944385528564,
                -0.35489752888679504,
                0.3548975884914398,
                0.6115943789482117
            ],
            "scale" : [
                0.034221820533275604,
                0.030860338360071182,
                0.0365573987364769
            ],
            "translation" : [
                -1.1452659368515015,
                0.73491370677948,
                -4.373172283172607
            ]
        }
    ],
    "materials" : [
        {
            "doubleSided" : true,
            "name" : "mouse_texture",
            "pbrMetallicRoughness" : {
                "baseColorTexture" : {
                    "index" : 0
                },
                "metallicFactor" : 0.4015749990940094,
                "roughnessFactor" : 0.5
            }
        }
    ],
    "meshes" : [
        {
            "name" : "mouse_dengan_cable_with_env.006",
            "primitives" : [
                {
                    "attributes" : {
                        "POSITION" : 0,
                        "TEXCOORD_0" : 1,
                        "NORMAL" : 2
                    },
                    "indices" : 3,
                    "material" : 0
                }
            ]
        }
    ],
    "textures" : [
        {
            "sampler" : 0,
            "source" : 0
        }
    ],
    "images" : [
        {
            "bufferView" : 4,
            "mimeType" : "image/png",
            "name" : "mouse_texture"
        }
    ],
    "accessors" : [
        {
            "bufferView" : 0,
            "componentType" : 5126,
            "count" : 799,
            "max" : [
                1.6050909757614136,
                -3.0641019344329834,
                0.0835919976234436
            ],
            "min" : [
                -1.0217139720916748,
                -5.393493175506592,
                -0.7279180288314819
            ],
            "type" : "VEC3"
        },
        {
            "bufferView" : 1,
            "componentType" : 5126,
            "count" : 799,
            "type" : "VEC2"
        },
        {
            "bufferView" : 2,
            "componentType" : 5126,
            "count" : 799,
            "type" : "VEC3"
        },
        {
            "bufferView" : 3,
            "componentType" : 5123,
            "count" : 2880,
            "type" : "SCALAR"
        }
    ],
    "bufferViews" : [
        {
            "buffer" : 0,
            "byteLength" : 9588,
            "byteOffset" : 0,
            "target" : 34962
        },
        {
            "buffer" : 0,
            "byteLength" : 6392,
            "byteOffset" : 9588,
            "target" : 34962
        },
        {
            "buffer" : 0,
            "byteLength" : 9588,
            "byteOffset" : 15980,
            "target" : 34962
        },
        {
            "buffer" : 0,
            "byteLength" : 5760,
            "byteOffset" : 25568,
            "target" : 34963
        },
        {
            "buffer" : 0,
            "byteLength" : 3727,
            "byteOffset" : 31328
        }
    ],
    "samplers" : [
        {
            "magFilter" : 9729,
            "minFilter" : 9987
        }
    ],
    "buffers" : [
        {
            "byteLength" : 35056,
            "uri" : "data:application/octet-stream;base64,"
        }
    ]
}
