{
    "asset" : {
        "generator" : "Khronos glTF Blender I/O v3.4.50",
        "version" : "2.0"
    },
    "scene" : 0,
    "scenes" : [
        {
            "name" : "Scene",
            "nodes" : [
                0,
                1
            ]
        }
    ],
    "nodes" : [
        {
            "mesh" : 0,
            "name" : "Bianco PC Case",
            "rotation" : [
                0,
                -0.08280819654464722,
                0,
                0.9965655207633972
            ],
            "scale" : [
                0.05025485157966614,
                0.05025484412908554,
                0.05025485157966614
            ],
            "translation" : [
                -0.4010421931743622,
                0.7254911065101624,
                -2.167074203491211
            ]
        },
        {
            "mesh" : 1,
            "name" : "Bianco Tappetino Mouse",
            "rotation" : [
                -0.9811149835586548,
                -0.0008437720825895667,
                -0.19337624311447144,
                0.0042809671722352505
            ],
            "scale" : [
                0.0990450456738472,
                0.0006944637862034142,
                0.07639103382825851
            ],
            "translation" : [
                -0.673943042755127,
                0.7300000190734863,
                -2.031961679458618
            ]
        }
    ],
    "materials" : [
        {
            "doubleSided" : true,
            "name" : "pc_block.002",
            "pbrMetallicRoughness" : {
                "baseColorTexture" : {
                    "index" : 0
                },
                "metallicFactor" : 0,
                "roughnessFactor" : 0.4000000059604645
            }
        },
        {
            "doubleSided" : true,
            "name" : "tappetino blu",
            "pbrMetallicRoughness" : {
                "baseColorTexture" : {
                    "index" : 1
                },
                "metallicFactor" : 0.642201840877533,
                "roughnessFactor" : 0.5
            }
        }
    ],
    "meshes" : [
        {
            "name" : "Cube.005",
            "primitives" : [
                {
                    "attributes" : {
                        "POSITION" : 0,
                        "TEXCOORD_0" : 1,
                        "NORMAL" : 2
                    },
                    "indices" : 3,
                    "material" : 0
                }
            ]
        },
        {
            "name" : "Cubo.015",
            "primitives" : [
                {
                    "attributes" : {
                        "POSITION" : 4,
                        "TEXCOORD_0" : 5,
                        "NORMAL" : 6
                    },
                    "indices" : 7,
                    "material" : 1
                }
            ]
        }
    ],
    "textures" : [
        {
            "sampler" : 0,
            "source" : 0
        },
        {
            "sampler" : 0,
            "source" : 1
        }
    ],
    "images" : [
        {
            "bufferView" : 4,
            "mimeType" : "image/png",
            "name" : "pc_atlas"
        },
        {
            "bufferView" : 9,
            "mimeType" : "image/png",
            "name" : "text-mousepad"
        }
    ],
    "accessors" : [
        {
            "bufferView" : 0,
            "componentType" : 5126,
            "count" : 177,
            "max" : [
                1.5458542108535767,
                7.173028469085693,
                4.191253662109375
            ],
            "min" : [
                -1.5458542108535767,
                0,
                -4.210272312164307
            ],
            "type" : "VEC3"
        },
        {
            "bufferView" : 1,
            "componentType" : 5126,
            "count" : 177,
            "type" : "VEC2"
        },
        {
            "bufferView" : 2,
            "componentType" : 5126,
            "count" : 177,
            "type" : "VEC3"
        },
        {
            "bufferView" : 3,
            "componentType" : 5123,
            "count" : 642,
            "type" : "SCALAR"
        },
        {
            "bufferView" : 5,
            "componentType" : 5126,
            "count" : 188,
            "max" : [
                1,
                1,
                1
            ],
            "min" : [
                -1,
                -1,
                -1
            ],
            "type" : "VEC3"
        },
        {
            "bufferView" : 6,
            "componentType" : 5126,
            "count" : 188,
            "type" : "VEC2"
        },
        {
            "bufferView" : 7,
            "componentType" : 5126,
            "count" : 188,
            "type" : "VEC3"
        },
        {
            "bufferView" : 8,
            "componentType" : 5123,
            "count" : 900,
            "type" : "SCALAR"
        }
    ],
    "bufferViews" : [
        {
            "buffer" : 0,
            "byteLength" : 2124,
            "byteOffset" : 0,
            "target" : 34962
        },
        {
            "buffer" : 0,
            "byteLength" : 1416,
            "byteOffset" : 2124,
            "target" : 34962
        },
        {
            "buffer" : 0,
            "byteLength" : 2124,
            "byteOffset" : 3540,
            "target" : 34962
        },
        {
            "buffer" : 0,
            "byteLength" : 1284,
            "byteOffset" : 5664,
            "target" : 34963
        },
        {
            "buffer" : 0,
            "byteLength" : 75471,
            "byteOffset" : 6948
        },
        {
            "buffer" : 0,
            "byteLength" : 2256,
            "byteOffset" : 82420,
            "target" : 34962
        },
        {
            "buffer" : 0,
            "byteLength" : 1504,
            "byteOffset" : 84676,
            "target" : 34962
        },
        {
            "buffer" : 0,
            "byteLength" : 2256,
            "byteOffset" : 86180,
            "target" : 34962
        },
        {
            "buffer" : 0,
            "byteLength" : 1800,
            "byteOffset" : 88436,
            "target" : 34963
        },
        {
            "buffer" : 0,
            "byteLength" : 68002,
            "byteOffset" : 90236
        }
    ],
    "samplers" : [
        {
            "magFilter" : 9729,
            "minFilter" : 9987
        }
    ],
    "buffers" : [
        {
            "byteLength" : 158240,
            "uri" : "data:application/octet-stream;base64,"
        }
    ]
}
