{
    "asset" : {
        "generator" : "Khronos glTF Blender I/O v3.4.50",
        "version" : "2.0"
    },
    "scene" : 0,
    "scenes" : [
        {
            "name" : "Scene",
            "nodes" : [
                0,
                1,
                2,
                3,
                4,
                5,
                6,
                7
            ]
        }
    ],
    "nodes" : [
        {
            "mesh" : 0,
            "name" : "Ciro Telefono Presa",
            "rotation" : [
                0,
                0,
                0.7071068286895752,
                0.7071068286895752
            ],
            "scale" : [
                0.01545764971524477,
                0.03091534413397312,
                0.004637294914573431
            ],
            "translation" : [
                -2.0478484630584717,
                0.30201250314712524,
                1.6919033527374268
            ]
        },
        {
            "mesh" : 1,
            "name" : "Ciro Monitor Cavo",
            "scale" : [
                0.004329739138484001,
                0.7077009081840515,
                0.0043297396041452885
            ],
            "translation" : [
                -1.0288231372833252,
                -0.01889006607234478,
                1.3044018745422363
            ]
        },
        {
            "mesh" : 2,
            "name" : "Ciro Monitor Cavo Plug",
            "scale" : [
                0.009213549084961414,
                0.004032439552247524,
                0.009213549084961414
            ],
            "translation" : [
                -1.8683058023452759,
                0.28899145126342773,
                1.7048041820526123
            ]
        },
        {
            "mesh" : 3,
            "name" : "Ciro Pc Case",
            "scale" : [
                0.05025484785437584,
                0.05025484412908554,
                0.05025484785437584
            ],
            "translation" : [
                -1.9062813520431519,
                0.0036455392837524414,
                1.9211251735687256
            ]
        },
        {
            "mesh" : 4,
            "name" : "Ciro Pc Case Cavo",
            "scale" : [
                0.004329739138484001,
                0.7514984011650085,
                0.00028046625084243715
            ],
            "translation" : [
                -1.8064048290252686,
                0,
                1.7008577585220337
            ]
        },
        {
            "mesh" : 5,
            "name" : "Ciro Pc Case Cavo Presa",
            "rotation" : [
                0,
                0,
                -0.7071068286895752,
                0.7071068286895752
            ],
            "scale" : [
                0.018180958926677704,
                0.018180958926677704,
                0.018180958926677704
            ],
            "translation" : [
                -2.068737030029297,
                0.2049638330936432,
                1.7062864303588867
            ]
        },
        {
            "mesh" : 6,
            "name" : "Ciro Telefono Cavo",
            "rotation" : [
                0,
                -0.2160649448633194,
                0,
                0.9763790369033813
            ],
            "scale" : [
                0.004329739138484001,
                0.8421612977981567,
                0.0043297396041452885
            ],
            "translation" : [
                -0.6083279848098755,
                0.00572461262345314,
                1.0815695524215698
            ]
        },
        {
            "mesh" : 7,
            "name" : "Ciro PC Case Plug",
            "scale" : [
                0.010177917778491974,
                0.0067051793448626995,
                0.0056615290232002735
            ],
            "translation" : [
                -1.970049500465393,
                0.13313041627407074,
                1.7054580450057983
            ]
        }
    ],
    "materials" : [
        {
            "doubleSided" : true,
            "name" : "Matte_Black.002",
            "pbrMetallicRoughness" : {
                "baseColorFactor" : [
                    0.0042420001700520515,
                    0.0042420001700520515,
                    0.0042420001700520515,
                    1
                ],
                "metallicFactor" : 0,
                "roughnessFactor" : 0.5
            }
        },
        {
            "doubleSided" : true,
            "name" : "banner sistema",
            "pbrMetallicRoughness" : {
                "baseColorTexture" : {
                    "index" : 0
                },
                "metallicFactor" : 0,
                "roughnessFactor" : 0.5
            }
        },
        {
            "doubleSided" : true,
            "name" : "pc_block.002",
            "pbrMetallicRoughness" : {
                "baseColorTexture" : {
                    "index" : 1
                },
                "metallicFactor" : 0,
                "roughnessFactor" : 0.4000000059604645
            }
        },
        {
            "doubleSided" : true,
            "name" : "Contorno Scrivanie",
            "pbrMetallicRoughness" : {
                "baseColorFactor" : [
                    0,
                    0,
                    0,
                    1
                ],
                "metallicFactor" : 0.5233644843101501,
                "roughnessFactor" : 0.5
            }
        }
    ],
    "meshes" : [
        {
            "name" : "Cubo.135",
            "primitives" : [
                {
                    "attributes" : {
                        "POSITION" : 0,
                        "TEXCOORD_0" : 1,
                        "NORMAL" : 2
                    },
                    "indices" : 3,
                    "material" : 0
                }
            ]
        },
        {
            "name" : "Cerchio.015",
            "primitives" : [
                {
                    "attributes" : {
                        "POSITION" : 4,
                        "TEXCOORD_0" : 5,
                        "NORMAL" : 6
                    },
                    "indices" : 7,
                    "material" : 0
                }
            ]
        },
        {
            "name" : "Cubo.340",
            "primitives" : [
                {
                    "attributes" : {
                        "POSITION" : 8,
                        "TEXCOORD_0" : 9,
                        "NORMAL" : 10
                    },
                    "indices" : 11,
                    "material" : 1
                }
            ]
        },
        {
            "name" : "Cube.007",
            "primitives" : [
                {
                    "attributes" : {
                        "POSITION" : 12,
                        "TEXCOORD_0" : 13,
                        "NORMAL" : 14
                    },
                    "indices" : 15,
                    "material" : 2
                }
            ]
        },
        {
            "name" : "Cerchio.024",
            "primitives" : [
                {
                    "attributes" : {
                        "POSITION" : 16,
                        "TEXCOORD_0" : 17,
                        "NORMAL" : 18
                    },
                    "indices" : 19,
                    "material" : 0
                }
            ]
        },
        {
            "name" : "Cilindro.020",
            "primitives" : [
                {
                    "attributes" : {
                        "POSITION" : 20,
                        "TEXCOORD_0" : 21,
                        "NORMAL" : 22
                    },
                    "indices" : 23,
                    "material" : 3
                }
            ]
        },
        {
            "name" : "Cerchio.010",
            "primitives" : [
                {
                    "attributes" : {
                        "POSITION" : 24,
                        "TEXCOORD_0" : 25,
                        "NORMAL" : 26
                    },
                    "indices" : 27,
                    "material" : 0
                }
            ]
        },
        {
            "name" : "Cubo.176",
            "primitives" : [
                {
                    "attributes" : {
                        "POSITION" : 28,
                        "TEXCOORD_0" : 29,
                        "NORMAL" : 30
                    },
                    "indices" : 31,
                    "material" : 3
                }
            ]
        }
    ],
    "textures" : [
        {
            "sampler" : 0,
            "source" : 0
        },
        {
            "sampler" : 0,
            "source" : 1
        }
    ],
    "images" : [
        {
            "bufferView" : 12,
            "mimeType" : "image/png",
            "name" : "blugrande"
        },
        {
            "bufferView" : 17,
            "mimeType" : "image/png",
            "name" : "pc_atlas"
        }
    ],
    "accessors" : [
        {
            "bufferView" : 0,
            "componentType" : 5126,
            "count" : 40,
            "max" : [
                1,
                1,
                1
            ],
            "min" : [
                -1,
                -0.5710183382034302,
                -1
            ],
            "type" : "VEC3"
        },
        {
            "bufferView" : 1,
            "componentType" : 5126,
            "count" : 40,
            "type" : "VEC2"
        },
        {
            "bufferView" : 2,
            "componentType" : 5126,
            "count" : 40,
            "type" : "VEC3"
        },
        {
            "bufferView" : 3,
            "componentType" : 5123,
            "count" : 60,
            "type" : "SCALAR"
        },
        {
            "bufferView" : 4,
            "componentType" : 5126,
            "count" : 1696,
            "max" : [
                -47.3321647644043,
                1.094902515411377,
                97.29496002197266
            ],
            "min" : [
                -198.42025756835938,
                0.025636114180088043,
                9.17802619934082
            ],
            "type" : "VEC3"
        },
        {
            "bufferView" : 5,
            "componentType" : 5126,
            "count" : 1696,
            "type" : "VEC2"
        },
        {
            "bufferView" : 6,
            "componentType" : 5126,
            "count" : 1696,
            "type" : "VEC3"
        },
        {
            "bufferView" : 7,
            "componentType" : 5123,
            "count" : 9984,
            "type" : "SCALAR"
        },
        {
            "bufferView" : 8,
            "componentType" : 5126,
            "count" : 62,
            "max" : [
                1,
                1,
                1
            ],
            "min" : [
                -1,
                -1,
                -1
            ],
            "type" : "VEC3"
        },
        {
            "bufferView" : 9,
            "componentType" : 5126,
            "count" : 62,
            "type" : "VEC2"
        },
        {
            "bufferView" : 10,
            "componentType" : 5126,
            "count" : 62,
            "type" : "VEC3"
        },
        {
            "bufferView" : 11,
            "componentType" : 5123,
            "count" : 108,
            "type" : "SCALAR"
        },
        {
            "bufferView" : 13,
            "componentType" : 5126,
            "count" : 177,
            "max" : [
                1.5458542108535767,
                7.173028469085693,
                4.191253662109375
            ],
            "min" : [
                -1.5458542108535767,
                0,
                -4.210272312164307
            ],
            "type" : "VEC3"
        },
        {
            "bufferView" : 14,
            "componentType" : 5126,
            "count" : 177,
            "type" : "VEC2"
        },
        {
            "bufferView" : 15,
            "componentType" : 5126,
            "count" : 177,
            "type" : "VEC3"
        },
        {
            "bufferView" : 16,
            "componentType" : 5123,
            "count" : 642,
            "type" : "SCALAR"
        },
        {
            "bufferView" : 18,
            "componentType" : 5126,
            "count" : 1696,
            "max" : [
                -29.8182315826416,
                0.2783176004886627,
                151.5528564453125
            ],
            "min" : [
                -57.784175872802734,
                0.0007287712069228292,
                -181.3722381591797
            ],
            "type" : "VEC3"
        },
        {
            "bufferView" : 19,
            "componentType" : 5126,
            "count" : 1696,
            "type" : "VEC2"
        },
        {
            "bufferView" : 20,
            "componentType" : 5126,
            "count" : 1696,
            "type" : "VEC3"
        },
        {
            "bufferView" : 21,
            "componentType" : 5123,
            "count" : 9984,
            "type" : "SCALAR"
        },
        {
            "bufferView" : 22,
            "componentType" : 5126,
            "count" : 320,
            "max" : [
                1,
                1,
                1
            ],
            "min" : [
                -1,
                -1,
                -1
            ],
            "type" : "VEC3"
        },
        {
            "bufferView" : 23,
            "componentType" : 5126,
            "count" : 320,
            "type" : "VEC2"
        },
        {
            "bufferView" : 24,
            "componentType" : 5126,
            "count" : 320,
            "type" : "VEC3"
        },
        {
            "bufferView" : 25,
            "componentType" : 5123,
            "count" : 564,
            "type" : "SCALAR"
        },
        {
            "bufferView" : 26,
            "componentType" : 5126,
            "count" : 1824,
            "max" : [
                38.195648193359375,
                0.9066034555435181,
                269.17523193359375
            ],
            "min" : [
                -242.8668212890625,
                0.004803771618753672,
                57.426368713378906
            ],
            "type" : "VEC3"
        },
        {
            "bufferView" : 27,
            "componentType" : 5126,
            "count" : 1824,
            "type" : "VEC2"
        },
        {
            "bufferView" : 28,
            "componentType" : 5126,
            "count" : 1824,
            "type" : "VEC3"
        },
        {
            "bufferView" : 29,
            "componentType" : 5123,
            "count" : 10752,
            "type" : "SCALAR"
        },
        {
            "bufferView" : 30,
            "componentType" : 5126,
            "count" : 86,
            "max" : [
                1,
                1,
                1
            ],
            "min" : [
                -1,
                -1.5246058702468872,
                -1
            ],
            "type" : "VEC3"
        },
        {
            "bufferView" : 31,
            "componentType" : 5126,
            "count" : 86,
            "type" : "VEC2"
        },
        {
            "bufferView" : 32,
            "componentType" : 5126,
            "count" : 86,
            "type" : "VEC3"
        },
        {
            "bufferView" : 33,
            "componentType" : 5123,
            "count" : 234,
            "type" : "SCALAR"
        }
    ],
    "bufferViews" : [
        {
            "buffer" : 0,
            "byteLength" : 480,
            "byteOffset" : 0,
            "target" : 34962
        },
        {
            "buffer" : 0,
            "byteLength" : 320,
            "byteOffset" : 480,
            "target" : 34962
        },
        {
            "buffer" : 0,
            "byteLength" : 480,
            "byteOffset" : 800,
            "target" : 34962
        },
        {
            "buffer" : 0,
            "byteLength" : 120,
            "byteOffset" : 1280,
            "target" : 34963
        },
        {
            "buffer" : 0,
            "byteLength" : 20352,
            "byteOffset" : 1400,
            "target" : 34962
        },
        {
            "buffer" : 0,
            "byteLength" : 13568,
            "byteOffset" : 21752,
            "target" : 34962
        },
        {
            "buffer" : 0,
            "byteLength" : 20352,
            "byteOffset" : 35320,
            "target" : 34962
        },
        {
            "buffer" : 0,
            "byteLength" : 19968,
            "byteOffset" : 55672,
            "target" : 34963
        },
        {
            "buffer" : 0,
            "byteLength" : 744,
            "byteOffset" : 75640,
            "target" : 34962
        },
        {
            "buffer" : 0,
            "byteLength" : 496,
            "byteOffset" : 76384,
            "target" : 34962
        },
        {
            "buffer" : 0,
            "byteLength" : 744,
            "byteOffset" : 76880,
            "target" : 34962
        },
        {
            "buffer" : 0,
            "byteLength" : 216,
            "byteOffset" : 77624,
            "target" : 34963
        },
        {
            "buffer" : 0,
            "byteLength" : 282731,
            "byteOffset" : 77840
        },
        {
            "buffer" : 0,
            "byteLength" : 2124,
            "byteOffset" : 360572,
            "target" : 34962
        },
        {
            "buffer" : 0,
            "byteLength" : 1416,
            "byteOffset" : 362696,
            "target" : 34962
        },
        {
            "buffer" : 0,
            "byteLength" : 2124,
            "byteOffset" : 364112,
            "target" : 34962
        },
        {
            "buffer" : 0,
            "byteLength" : 1284,
            "byteOffset" : 366236,
            "target" : 34963
        },
        {
            "buffer" : 0,
            "byteLength" : 75471,
            "byteOffset" : 367520
        },
        {
            "buffer" : 0,
            "byteLength" : 20352,
            "byteOffset" : 442992,
            "target" : 34962
        },
        {
            "buffer" : 0,
            "byteLength" : 13568,
            "byteOffset" : 463344,
            "target" : 34962
        },
        {
            "buffer" : 0,
            "byteLength" : 20352,
            "byteOffset" : 476912,
            "target" : 34962
        },
        {
            "buffer" : 0,
            "byteLength" : 19968,
            "byteOffset" : 497264,
            "target" : 34963
        },
        {
            "buffer" : 0,
            "byteLength" : 3840,
            "byteOffset" : 517232,
            "target" : 34962
        },
        {
            "buffer" : 0,
            "byteLength" : 2560,
            "byteOffset" : 521072,
            "target" : 34962
        },
        {
            "buffer" : 0,
            "byteLength" : 3840,
            "byteOffset" : 523632,
            "target" : 34962
        },
        {
            "buffer" : 0,
            "byteLength" : 1128,
            "byteOffset" : 527472,
            "target" : 34963
        },
        {
            "buffer" : 0,
            "byteLength" : 21888,
            "byteOffset" : 528600,
            "target" : 34962
        },
        {
            "buffer" : 0,
            "byteLength" : 14592,
            "byteOffset" : 550488,
            "target" : 34962
        },
        {
            "buffer" : 0,
            "byteLength" : 21888,
            "byteOffset" : 565080,
            "target" : 34962
        },
        {
            "buffer" : 0,
            "byteLength" : 21504,
            "byteOffset" : 586968,
            "target" : 34963
        },
        {
            "buffer" : 0,
            "byteLength" : 1032,
            "byteOffset" : 608472,
            "target" : 34962
        },
        {
            "buffer" : 0,
            "byteLength" : 688,
            "byteOffset" : 609504,
            "target" : 34962
        },
        {
            "buffer" : 0,
            "byteLength" : 1032,
            "byteOffset" : 610192,
            "target" : 34962
        },
        {
            "buffer" : 0,
            "byteLength" : 468,
            "byteOffset" : 611224,
            "target" : 34963
        }
    ],
    "samplers" : [
        {
            "magFilter" : 9729,
            "minFilter" : 9987
        }
    ],
    "buffers" : [
        {
            "byteLength" : 611692,
            "uri" : "data:application/octet-stream;base64,"
        }
    ]
}
