{
    "asset" : {
        "generator" : "Khronos glTF Blender I/O v3.4.50",
        "version" : "2.0"
    },
    "scene" : 0,
    "scenes" : [
        {
            "name" : "Scene",
            "nodes" : [
                0,
                1,
                2,
                3
            ]
        }
    ],
    "nodes" : [
        {
            "mesh" : 0,
            "name" : "Bianco Altoparlante DX",
            "rotation" : [
                -0.28852277994155884,
                0.27407604455947876,
                -0.6651437878608704,
                0.6318391561508179
            ],
            "scale" : [
                0.03199804201722145,
                0.009818866848945618,
                0.03180000185966492
            ],
            "translation" : [
                -0.5916697978973389,
                0.7629327178001404,
                -2.1480720043182373
            ]
        },
        {
            "mesh" : 1,
            "name" : "Bianco Altoparlante SX",
            "rotation" : [
                0,
                -0.45087751746177673,
                0,
                0.892585813999176
            ],
            "scale" : [
                0.05000000074505806,
                0.07999999821186066,
                0.05000000074505806
            ],
            "translation" : [
                -1.3093732595443726,
                0.8035148978233337,
                -2.18485951423645
            ]
        },
        {
            "mesh" : 2,
            "name" : "Bianco Cuffie",
            "rotation" : [
                0.39605268836021423,
                -0.5299161672592163,
                0.43660610914230347,
                0.6096771955490112
            ],
            "scale" : [
                0.008181720972061157,
                0.008181720972061157,
                0.008181720972061157
            ],
            "translation" : [
                -0.6106504797935486,
                0.7167214155197144,
                -2.1454646587371826
            ]
        },
        {
            "mesh" : 3,
            "name" : "Bianco Microfono",
            "rotation" : [
                0,
                0.9959483742713928,
                0,
                0.08992698043584824
            ],
            "scale" : [
                -0.022114500403404236,
                -0.003362934570759535,
                -0.019036997109651566
            ],
            "translation" : [
                -0.671408474445343,
                0.7255919575691223,
                -2.232208251953125
            ]
        }
    ],
    "materials" : [
        {
            "doubleSided" : true,
            "name" : "argento",
            "pbrMetallicRoughness" : {
                "baseColorFactor" : [
                    0.49584683775901794,
                    0.49584683775901794,
                    0.49584683775901794,
                    1
                ],
                "metallicFactor" : 2,
                "roughnessFactor" : 0.5
            }
        },
        {
            "doubleSided" : true,
            "name" : "GRIGLIA.001",
            "pbrMetallicRoughness" : {
                "baseColorTexture" : {
                    "index" : 0
                },
                "metallicFactor" : 0,
                "roughnessFactor" : 0.5
            }
        },
        {
            "doubleSided" : true,
            "name" : "Contorno Scrivanie",
            "pbrMetallicRoughness" : {
                "baseColorFactor" : [
                    0,
                    0,
                    0,
                    1
                ],
                "metallicFactor" : 0.5233644843101501,
                "roughnessFactor" : 0.5
            }
        },
        {
            "doubleSided" : true,
            "name" : "fondo portatile",
            "pbrMetallicRoughness" : {
                "baseColorFactor" : [
                    0,
                    0,
                    0,
                    1
                ],
                "metallicFactor" : 0,
                "roughnessFactor" : 0.5
            }
        },
        {
            "doubleSided" : true,
            "name" : "microfono",
            "pbrMetallicRoughness" : {
                "baseColorFactor" : [
                    0.40691182017326355,
                    0.43362048268318176,
                    0.25554701685905457,
                    1
                ],
                "metallicFactor" : 0,
                "roughnessFactor" : 0.5
            }
        }
    ],
    "meshes" : [
        {
            "name" : "Cilindro.008",
            "primitives" : [
                {
                    "attributes" : {
                        "POSITION" : 0,
                        "TEXCOORD_0" : 1,
                        "NORMAL" : 2
                    },
                    "indices" : 3,
                    "material" : 0
                },
                {
                    "attributes" : {
                        "POSITION" : 4,
                        "TEXCOORD_0" : 5,
                        "NORMAL" : 6
                    },
                    "indices" : 7,
                    "material" : 1
                },
                {
                    "attributes" : {
                        "POSITION" : 8,
                        "TEXCOORD_0" : 9,
                        "NORMAL" : 10
                    },
                    "indices" : 11,
                    "material" : 2
                }
            ]
        },
        {
            "name" : "Cilindro.035",
            "primitives" : [
                {
                    "attributes" : {
                        "POSITION" : 12,
                        "TEXCOORD_0" : 13,
                        "NORMAL" : 14
                    },
                    "indices" : 15,
                    "material" : 2
                },
                {
                    "attributes" : {
                        "POSITION" : 16,
                        "TEXCOORD_0" : 17,
                        "NORMAL" : 18
                    },
                    "indices" : 19,
                    "material" : 0
                },
                {
                    "attributes" : {
                        "POSITION" : 20,
                        "TEXCOORD_0" : 21,
                        "NORMAL" : 22
                    },
                    "indices" : 23
                }
            ]
        },
        {
            "name" : "headphone_obj",
            "primitives" : [
                {
                    "attributes" : {
                        "POSITION" : 24,
                        "TEXCOORD_0" : 25,
                        "NORMAL" : 26
                    },
                    "indices" : 27,
                    "material" : 3
                }
            ]
        },
        {
            "name" : "Cubo.016",
            "primitives" : [
                {
                    "attributes" : {
                        "POSITION" : 28,
                        "TEXCOORD_0" : 29,
                        "TEXCOORD_1" : 30,
                        "NORMAL" : 31
                    },
                    "indices" : 32,
                    "material" : 4
                },
                {
                    "attributes" : {
                        "POSITION" : 33,
                        "TEXCOORD_0" : 34,
                        "TEXCOORD_1" : 35,
                        "NORMAL" : 36
                    },
                    "indices" : 37,
                    "material" : 2
                }
            ]
        }
    ],
    "textures" : [
        {
            "sampler" : 0,
            "source" : 0
        }
    ],
    "images" : [
        {
            "bufferView" : 8,
            "mimeType" : "image/png",
            "name" : "RETE"
        }
    ],
    "accessors" : [
        {
            "bufferView" : 0,
            "componentType" : 5126,
            "count" : 1527,
            "max" : [
                1.0000001192092896,
                3.3148436546325684,
                1.4150944948196411
            ],
            "min" : [
                -3.939565658569336,
                -1.0000007152557373,
                -1.4150944948196411
            ],
            "type" : "VEC3"
        },
        {
            "bufferView" : 1,
            "componentType" : 5126,
            "count" : 1527,
            "type" : "VEC2"
        },
        {
            "bufferView" : 2,
            "componentType" : 5126,
            "count" : 1527,
            "type" : "VEC3"
        },
        {
            "bufferView" : 3,
            "componentType" : 5123,
            "count" : 3681,
            "type" : "SCALAR"
        },
        {
            "bufferView" : 4,
            "componentType" : 5126,
            "count" : 118,
            "max" : [
                0.10733924806118011,
                -0.8736113905906677,
                1.358189344406128
            ],
            "min" : [
                -3.2788162231445312,
                -1.1318511962890625,
                -1.3609321117401123
            ],
            "type" : "VEC3"
        },
        {
            "bufferView" : 5,
            "componentType" : 5126,
            "count" : 118,
            "type" : "VEC2"
        },
        {
            "bufferView" : 6,
            "componentType" : 5126,
            "count" : 118,
            "type" : "VEC3"
        },
        {
            "bufferView" : 7,
            "componentType" : 5123,
            "count" : 312,
            "type" : "SCALAR"
        },
        {
            "bufferView" : 9,
            "componentType" : 5126,
            "count" : 107,
            "max" : [
                1.2472753524780273,
                5.301242351531982,
                1.6551274061203003
            ],
            "min" : [
                -3.8673834800720215,
                -0.9730831384658813,
                -1.6737143993377686
            ],
            "type" : "VEC3"
        },
        {
            "bufferView" : 10,
            "componentType" : 5126,
            "count" : 107,
            "type" : "VEC2"
        },
        {
            "bufferView" : 11,
            "componentType" : 5126,
            "count" : 107,
            "type" : "VEC3"
        },
        {
            "bufferView" : 12,
            "componentType" : 5123,
            "count" : 297,
            "type" : "SCALAR"
        },
        {
            "bufferView" : 13,
            "componentType" : 5126,
            "count" : 240,
            "max" : [
                0.20546811819076538,
                1.0420829057693481,
                1.0585715770721436
            ],
            "min" : [
                -1.0282926559448242,
                -1,
                -1.0585715770721436
            ],
            "type" : "VEC3"
        },
        {
            "bufferView" : 14,
            "componentType" : 5126,
            "count" : 240,
            "type" : "VEC2"
        },
        {
            "bufferView" : 15,
            "componentType" : 5126,
            "count" : 240,
            "type" : "VEC3"
        },
        {
            "bufferView" : 16,
            "componentType" : 5123,
            "count" : 924,
            "type" : "SCALAR"
        },
        {
            "bufferView" : 17,
            "componentType" : 5126,
            "count" : 266,
            "max" : [
                0.20262543857097626,
                0.8283069133758545,
                0.8940893411636353
            ],
            "min" : [
                -0.3318096995353699,
                -0.9136552810668945,
                -0.9059110879898071
            ],
            "type" : "VEC3"
        },
        {
            "bufferView" : 18,
            "componentType" : 5126,
            "count" : 266,
            "type" : "VEC2"
        },
        {
            "bufferView" : 19,
            "componentType" : 5126,
            "count" : 266,
            "type" : "VEC3"
        },
        {
            "bufferView" : 20,
            "componentType" : 5123,
            "count" : 858,
            "type" : "SCALAR"
        },
        {
            "bufferView" : 21,
            "componentType" : 5126,
            "count" : 118,
            "max" : [
                0.19916462898254395,
                0.8089401721954346,
                0.8596420884132385
            ],
            "min" : [
                0.03730078041553497,
                -0.5452810525894165,
                -0.8697192668914795
            ],
            "type" : "VEC3"
        },
        {
            "bufferView" : 22,
            "componentType" : 5126,
            "count" : 118,
            "type" : "VEC2"
        },
        {
            "bufferView" : 23,
            "componentType" : 5126,
            "count" : 118,
            "type" : "VEC3"
        },
        {
            "bufferView" : 24,
            "componentType" : 5123,
            "count" : 312,
            "type" : "SCALAR"
        },
        {
            "bufferView" : 25,
            "componentType" : 5126,
            "count" : 22688,
            "max" : [
                13.397857666015625,
                5.0027289390563965,
                -1.000203013420105
            ],
            "min" : [
                -11.303168296813965,
                -4.1556172370910645,
                -24.750560760498047
            ],
            "type" : "VEC3"
        },
        {
            "bufferView" : 26,
            "componentType" : 5126,
            "count" : 22688,
            "type" : "VEC2"
        },
        {
            "bufferView" : 27,
            "componentType" : 5126,
            "count" : 22688,
            "type" : "VEC3"
        },
        {
            "bufferView" : 28,
            "componentType" : 5123,
            "count" : 108204,
            "type" : "SCALAR"
        },
        {
            "bufferView" : 29,
            "componentType" : 5126,
            "count" : 7830,
            "max" : [
                1.2869065999984741,
                1.0000001192092896,
                7.784478664398193
            ],
            "min" : [
                -1.459973931312561,
                -42.850948333740234,
                -1.2164136171340942
            ],
            "type" : "VEC3"
        },
        {
            "bufferView" : 30,
            "componentType" : 5126,
            "count" : 7830,
            "type" : "VEC2"
        },
        {
            "bufferView" : 31,
            "componentType" : 5126,
            "count" : 7830,
            "type" : "VEC2"
        },
        {
            "bufferView" : 32,
            "componentType" : 5126,
            "count" : 7830,
            "type" : "VEC3"
        },
        {
            "bufferView" : 33,
            "componentType" : 5123,
            "count" : 20814,
            "type" : "SCALAR"
        },
        {
            "bufferView" : 34,
            "componentType" : 5126,
            "count" : 32,
            "max" : [
                0.02810238115489483,
                -41.921878814697266,
                7.728020668029785
            ],
            "min" : [
                -0.028102396056056023,
                -42.27513885498047,
                7.708822727203369
            ],
            "type" : "VEC3"
        },
        {
            "bufferView" : 35,
            "componentType" : 5126,
            "count" : 32,
            "type" : "VEC2"
        },
        {
            "bufferView" : 36,
            "componentType" : 5126,
            "count" : 32,
            "type" : "VEC2"
        },
        {
            "bufferView" : 37,
            "componentType" : 5126,
            "count" : 32,
            "type" : "VEC3"
        },
        {
            "bufferView" : 38,
            "componentType" : 5123,
            "count" : 90,
            "type" : "SCALAR"
        }
    ],
    "bufferViews" : [
        {
            "buffer" : 0,
            "byteLength" : 18324,
            "byteOffset" : 0,
            "target" : 34962
        },
        {
            "buffer" : 0,
            "byteLength" : 12216,
            "byteOffset" : 18324,
            "target" : 34962
        },
        {
            "buffer" : 0,
            "byteLength" : 18324,
            "byteOffset" : 30540,
            "target" : 34962
        },
        {
            "buffer" : 0,
            "byteLength" : 7362,
            "byteOffset" : 48864,
            "target" : 34963
        },
        {
            "buffer" : 0,
            "byteLength" : 1416,
            "byteOffset" : 56228,
            "target" : 34962
        },
        {
            "buffer" : 0,
            "byteLength" : 944,
            "byteOffset" : 57644,
            "target" : 34962
        },
        {
            "buffer" : 0,
            "byteLength" : 1416,
            "byteOffset" : 58588,
            "target" : 34962
        },
        {
            "buffer" : 0,
            "byteLength" : 624,
            "byteOffset" : 60004,
            "target" : 34963
        },
        {
            "buffer" : 0,
            "byteLength" : 842528,
            "byteOffset" : 60628
        },
        {
            "buffer" : 0,
            "byteLength" : 1284,
            "byteOffset" : 903156,
            "target" : 34962
        },
        {
            "buffer" : 0,
            "byteLength" : 856,
            "byteOffset" : 904440,
            "target" : 34962
        },
        {
            "buffer" : 0,
            "byteLength" : 1284,
            "byteOffset" : 905296,
            "target" : 34962
        },
        {
            "buffer" : 0,
            "byteLength" : 594,
            "byteOffset" : 906580,
            "target" : 34963
        },
        {
            "buffer" : 0,
            "byteLength" : 2880,
            "byteOffset" : 907176,
            "target" : 34962
        },
        {
            "buffer" : 0,
            "byteLength" : 1920,
            "byteOffset" : 910056,
            "target" : 34962
        },
        {
            "buffer" : 0,
            "byteLength" : 2880,
            "byteOffset" : 911976,
            "target" : 34962
        },
        {
            "buffer" : 0,
            "byteLength" : 1848,
            "byteOffset" : 914856,
            "target" : 34963
        },
        {
            "buffer" : 0,
            "byteLength" : 3192,
            "byteOffset" : 916704,
            "target" : 34962
        },
        {
            "buffer" : 0,
            "byteLength" : 2128,
            "byteOffset" : 919896,
            "target" : 34962
        },
        {
            "buffer" : 0,
            "byteLength" : 3192,
            "byteOffset" : 922024,
            "target" : 34962
        },
        {
            "buffer" : 0,
            "byteLength" : 1716,
            "byteOffset" : 925216,
            "target" : 34963
        },
        {
            "buffer" : 0,
            "byteLength" : 1416,
            "byteOffset" : 926932,
            "target" : 34962
        },
        {
            "buffer" : 0,
            "byteLength" : 944,
            "byteOffset" : 928348,
            "target" : 34962
        },
        {
            "buffer" : 0,
            "byteLength" : 1416,
            "byteOffset" : 929292,
            "target" : 34962
        },
        {
            "buffer" : 0,
            "byteLength" : 624,
            "byteOffset" : 930708,
            "target" : 34963
        },
        {
            "buffer" : 0,
            "byteLength" : 272256,
            "byteOffset" : 931332,
            "target" : 34962
        },
        {
            "buffer" : 0,
            "byteLength" : 181504,
            "byteOffset" : 1203588,
            "target" : 34962
        },
        {
            "buffer" : 0,
            "byteLength" : 272256,
            "byteOffset" : 1385092,
            "target" : 34962
        },
        {
            "buffer" : 0,
            "byteLength" : 216408,
            "byteOffset" : 1657348,
            "target" : 34963
        },
        {
            "buffer" : 0,
            "byteLength" : 93960,
            "byteOffset" : 1873756,
            "target" : 34962
        },
        {
            "buffer" : 0,
            "byteLength" : 62640,
            "byteOffset" : 1967716,
            "target" : 34962
        },
        {
            "buffer" : 0,
            "byteLength" : 62640,
            "byteOffset" : 2030356,
            "target" : 34962
        },
        {
            "buffer" : 0,
            "byteLength" : 93960,
            "byteOffset" : 2092996,
            "target" : 34962
        },
        {
            "buffer" : 0,
            "byteLength" : 41628,
            "byteOffset" : 2186956,
            "target" : 34963
        },
        {
            "buffer" : 0,
            "byteLength" : 384,
            "byteOffset" : 2228584,
            "target" : 34962
        },
        {
            "buffer" : 0,
            "byteLength" : 256,
            "byteOffset" : 2228968,
            "target" : 34962
        },
        {
            "buffer" : 0,
            "byteLength" : 256,
            "byteOffset" : 2229224,
            "target" : 34962
        },
        {
            "buffer" : 0,
            "byteLength" : 384,
            "byteOffset" : 2229480,
            "target" : 34962
        },
        {
            "buffer" : 0,
            "byteLength" : 180,
            "byteOffset" : 2229864,
            "target" : 34963
        }
    ],
    "samplers" : [
        {
            "magFilter" : 9729,
            "minFilter" : 9987
        }
    ],
    "buffers" : [
        {
            "byteLength" : 2230044,
            "uri" : "data:application/octet-stream;base64,"
        }
    ]
}
