{
    "asset" : {
        "generator" : "Khronos glTF Blender I/O v3.4.50",
        "version" : "2.0"
    },
    "scene" : 0,
    "scenes" : [
        {
            "name" : "Scene",
            "nodes" : [
                0
            ]
        }
    ],
    "nodes" : [
        {
            "mesh" : 0,
            "name" : "Bianco Telefono",
            "rotation" : [
                0.04168185964226723,
                0.29958704113960266,
                -0.013102258555591106,
                0.9530680179595947
            ],
            "scale" : [
                0.07577004283666611,
                0.08179991692304611,
                0.08409890532493591
            ],
            "translation" : [
                -1.5803970098495483,
                0.7185508608818054,
                -2.0237135887145996
            ]
        }
    ],
    "materials" : [
        {
            "doubleSided" : true,
            "name" : "tel fijo",
            "pbrMetallicRoughness" : {
                "baseColorTexture" : {
                    "index" : 0
                },
                "metallicFactor" : 0,
                "roughnessFactor" : 0.5
            }
        }
    ],
    "meshes" : [
        {
            "name" : "Plano.002",
            "primitives" : [
                {
                    "attributes" : {
                        "POSITION" : 0,
                        "TEXCOORD_0" : 1,
                        "NORMAL" : 2
                    },
                    "indices" : 3,
                    "material" : 0
                }
            ]
        }
    ],
    "textures" : [
        {
            "sampler" : 0,
            "source" : 0
        }
    ],
    "images" : [
        {
            "bufferView" : 4,
            "mimeType" : "image/jpeg",
            "name" : "tel_fijo_color"
        }
    ],
    "accessors" : [
        {
            "bufferView" : 0,
            "componentType" : 5126,
            "count" : 30159,
            "max" : [
                1.3965305089950562,
                0.8713881969451904,
                1.5603753328323364
            ],
            "min" : [
                -2.393932342529297,
                -0.11384863406419754,
                -1.3457720279693604
            ],
            "type" : "VEC3"
        },
        {
            "bufferView" : 1,
            "componentType" : 5126,
            "count" : 30159,
            "type" : "VEC2"
        },
        {
            "bufferView" : 2,
            "componentType" : 5126,
            "count" : 30159,
            "type" : "VEC3"
        },
        {
            "bufferView" : 3,
            "componentType" : 5123,
            "count" : 51552,
            "type" : "SCALAR"
        }
    ],
    "bufferViews" : [
        {
            "buffer" : 0,
            "byteLength" : 361908,
            "byteOffset" : 0,
            "target" : 34962
        },
        {
            "buffer" : 0,
            "byteLength" : 241272,
            "byteOffset" : 361908,
            "target" : 34962
        },
        {
            "buffer" : 0,
            "byteLength" : 361908,
            "byteOffset" : 603180,
            "target" : 34962
        },
        {
            "buffer" : 0,
            "byteLength" : 103104,
            "byteOffset" : 965088,
            "target" : 34963
        },
        {
            "buffer" : 0,
            "byteLength" : 51718,
            "byteOffset" : 1068192
        }
    ],
    "samplers" : [
        {
            "magFilter" : 9729,
            "minFilter" : 9987
        }
    ],
    "buffers" : [
        {
            "byteLength" : 1119912,
            "uri" : "data:application/octet-stream;base64,"
        }
    ]
}
