{
    "asset" : {
        "generator" : "Khronos glTF Blender I/O v3.4.50",
        "version" : "2.0"
    },
    "extensionsUsed" : [
        "KHR_materials_specular",
        "KHR_materials_ior"
    ],
    "scene" : 0,
    "scenes" : [
        {
            "name" : "Scene",
            "nodes" : [
                0
            ]
        }
    ],
    "nodes" : [
        {
            "mesh" : 0,
            "name" : "Copia Cassettiera",
            "rotation" : [
                0.7071068286895752,
                -0.7071068286895752,
                0,
                3.090862321641907e-08
            ],
            "scale" : [
                0.009999999776482582,
                0.20749999582767487,
                0.28999999165534973
            ],
            "translation" : [
                -0.5113129615783691,
                0.4633278250694275,
                -0.004402875900268555
            ]
        }
    ],
    "materials" : [
        {
            "doubleSided" : true,
            "name" : "Arredamento",
            "pbrMetallicRoughness" : {
                "baseColorFactor" : [
                    0.7324767112731934,
                    0.7324767112731934,
                    0.7324767112731934,
                    1
                ],
                "metallicFactor" : 0,
                "roughnessFactor" : 0.5
            }
        },
        {
            "doubleSided" : true,
            "extensions" : {
                "KHR_materials_specular" : {
                    "specularColorTexture" : {
                        "index" : 0
                    }
                },
                "KHR_materials_ior" : {
                    "ior" : 1.4500000476837158
                }
            },
            "name" : "base.002",
            "pbrMetallicRoughness" : {
                "baseColorTexture" : {
                    "index" : 1
                },
                "metallicRoughnessTexture" : {
                    "index" : 2
                }
            }
        },
        {
            "doubleSided" : true,
            "name" : "Contorno Scrivanie",
            "pbrMetallicRoughness" : {
                "baseColorFactor" : [
                    0,
                    0,
                    0,
                    1
                ],
                "metallicFactor" : 0.5233644843101501,
                "roughnessFactor" : 0.5
            }
        }
    ],
    "meshes" : [
        {
            "name" : "Cubo.270",
            "primitives" : [
                {
                    "attributes" : {
                        "POSITION" : 0,
                        "TEXCOORD_0" : 1,
                        "NORMAL" : 2
                    },
                    "indices" : 3,
                    "material" : 0
                },
                {
                    "attributes" : {
                        "POSITION" : 4,
                        "TEXCOORD_0" : 5,
                        "NORMAL" : 6
                    },
                    "indices" : 7,
                    "material" : 1
                },
                {
                    "attributes" : {
                        "POSITION" : 8,
                        "TEXCOORD_0" : 9,
                        "NORMAL" : 10
                    },
                    "indices" : 11,
                    "material" : 2
                }
            ]
        }
    ],
    "textures" : [
        {
            "sampler" : 0,
            "source" : 0
        },
        {
            "sampler" : 0,
            "source" : 1
        },
        {
            "sampler" : 0,
            "source" : 2
        }
    ],
    "images" : [
        {
            "bufferView" : 8,
            "mimeType" : "image/png",
            "name" : "Image"
        },
        {
            "bufferView" : 9,
            "mimeType" : "image/png",
            "name" : "Frog Cassettiera_color"
        },
        {
            "bufferView" : 10,
            "mimeType" : "image/png",
            "name" : "Frog Cassettiera_metallic-Frog Cassettiera_roughness"
        }
    ],
    "accessors" : [
        {
            "bufferView" : 0,
            "componentType" : 5126,
            "count" : 798,
            "max" : [
                42.60727310180664,
                1,
                1.001966118812561
            ],
            "min" : [
                -1,
                -1,
                -1.001015067100525
            ],
            "type" : "VEC3"
        },
        {
            "bufferView" : 1,
            "componentType" : 5126,
            "count" : 798,
            "type" : "VEC2"
        },
        {
            "bufferView" : 2,
            "componentType" : 5126,
            "count" : 798,
            "type" : "VEC3"
        },
        {
            "bufferView" : 3,
            "componentType" : 5123,
            "count" : 2142,
            "type" : "SCALAR"
        },
        {
            "bufferView" : 4,
            "componentType" : 5126,
            "count" : 5330,
            "max" : [
                36.19218063354492,
                0.10320360213518143,
                -0.9975482225418091
            ],
            "min" : [
                2.7463390827178955,
                -0.8461077809333801,
                -1.0665137767791748
            ],
            "type" : "VEC3"
        },
        {
            "bufferView" : 5,
            "componentType" : 5126,
            "count" : 5330,
            "type" : "VEC2"
        },
        {
            "bufferView" : 6,
            "componentType" : 5126,
            "count" : 5330,
            "type" : "VEC3"
        },
        {
            "bufferView" : 7,
            "componentType" : 5123,
            "count" : 26916,
            "type" : "SCALAR"
        },
        {
            "bufferView" : 11,
            "componentType" : 5126,
            "count" : 2252,
            "max" : [
                44.930049896240234,
                1,
                0.9433159828186035
            ],
            "min" : [
                -1.0000081062316895,
                -1,
                -1.0507237911224365
            ],
            "type" : "VEC3"
        },
        {
            "bufferView" : 12,
            "componentType" : 5126,
            "count" : 2252,
            "type" : "VEC2"
        },
        {
            "bufferView" : 13,
            "componentType" : 5126,
            "count" : 2252,
            "type" : "VEC3"
        },
        {
            "bufferView" : 14,
            "componentType" : 5123,
            "count" : 4809,
            "type" : "SCALAR"
        }
    ],
    "bufferViews" : [
        {
            "buffer" : 0,
            "byteLength" : 9576,
            "byteOffset" : 0,
            "target" : 34962
        },
        {
            "buffer" : 0,
            "byteLength" : 6384,
            "byteOffset" : 9576,
            "target" : 34962
        },
        {
            "buffer" : 0,
            "byteLength" : 9576,
            "byteOffset" : 15960,
            "target" : 34962
        },
        {
            "buffer" : 0,
            "byteLength" : 4284,
            "byteOffset" : 25536,
            "target" : 34963
        },
        {
            "buffer" : 0,
            "byteLength" : 63960,
            "byteOffset" : 29820,
            "target" : 34962
        },
        {
            "buffer" : 0,
            "byteLength" : 42640,
            "byteOffset" : 93780,
            "target" : 34962
        },
        {
            "buffer" : 0,
            "byteLength" : 63960,
            "byteOffset" : 136420,
            "target" : 34962
        },
        {
            "buffer" : 0,
            "byteLength" : 53832,
            "byteOffset" : 200380,
            "target" : 34963
        },
        {
            "buffer" : 0,
            "byteLength" : 41519,
            "byteOffset" : 254212
        },
        {
            "buffer" : 0,
            "byteLength" : 39742,
            "byteOffset" : 295732
        },
        {
            "buffer" : 0,
            "byteLength" : 36050,
            "byteOffset" : 335476
        },
        {
            "buffer" : 0,
            "byteLength" : 27024,
            "byteOffset" : 371528,
            "target" : 34962
        },
        {
            "buffer" : 0,
            "byteLength" : 18016,
            "byteOffset" : 398552,
            "target" : 34962
        },
        {
            "buffer" : 0,
            "byteLength" : 27024,
            "byteOffset" : 416568,
            "target" : 34962
        },
        {
            "buffer" : 0,
            "byteLength" : 9618,
            "byteOffset" : 443592,
            "target" : 34963
        }
    ],
    "samplers" : [
        {
            "magFilter" : 9729,
            "minFilter" : 9987
        }
    ],
    "buffers" : [
        {
            "byteLength" : 453212,
            "uri" : "data:application/octet-stream;base64,"
        }
    ]
}
