{
    "asset" : {
        "generator" : "Khronos glTF Blender I/O v3.4.50",
        "version" : "2.0"
    },
    "scene" : 0,
    "scenes" : [
        {
            "name" : "Scene",
            "nodes" : [
                0,
                1,
                2,
                3,
                4,
                5
            ]
        }
    ],
    "nodes" : [
        {
            "mesh" : 0,
            "name" : "Pavimento",
            "rotation" : [
                0,
                -1,
                0,
                4.371138828673793e-08
            ],
            "scale" : [
                10.16871166229248,
                1,
                10.199999809265137
            ],
            "translation" : [
                -8.775247260928154e-05,
                0.0007360000163316727,
                4.304808680899441e-05
            ]
        },
        {
            "mesh" : 1,
            "name" : "Lorenzo Scrivania",
            "rotation" : [
                0.5,
                0.5,
                -0.5,
                0.5
            ],
            "scale" : [
                0.001500000013038516,
                0.7599999904632568,
                0.2150000035762787
            ],
            "translation" : [
                -1.05547034740448,
                0.47987011075019836,
                3.113821506500244
            ]
        },
        {
            "mesh" : 2,
            "name" : "Lello Scrivania",
            "rotation" : [
                0.6514366269111633,
                0,
                -0.7587030529975891,
                0
            ],
            "scale" : [
                -0.015000000596046448,
                -0.3499999940395355,
                -0.0014999998966231942
            ],
            "translation" : [
                -1.6472622156143188,
                0.3431960344314575,
                -3.0798776149749756
            ]
        },
        {
            "mesh" : 3,
            "name" : "Copia Scrivania",
            "rotation" : [
                0.5,
                0.5,
                -0.5,
                0.5
            ],
            "scale" : [
                0.001500000013038516,
                0.7599999904632568,
                0.2150000035762787
            ],
            "translation" : [
                -1.02763032913208,
                0.4759380519390106,
                -0.2985631227493286
            ]
        },
        {
            "mesh" : 4,
            "name" : "Ciro Scrivania",
            "rotation" : [
                0.5,
                0.5,
                -0.5,
                0.5
            ],
            "scale" : [
                0.001500000013038516,
                0.7599999904632568,
                0.2150000035762787
            ],
            "translation" : [
                -1.02763032913208,
                0.491254985332489,
                1.5791542530059814
            ]
        },
        {
            "mesh" : 5,
            "name" : "Bianco Scrivania",
            "rotation" : [
                0,
                -0.11667072772979736,
                0,
                0.9931706786155701
            ],
            "scale" : [
                0.014999994076788425,
                0.3499999940395355,
                0.001500000013038516
            ],
            "translation" : [
                -0.313351571559906,
                0.3431960344314575,
                -2.4295051097869873
            ]
        }
    ],
    "materials" : [
        {
            "alphaMode" : "BLEND",
            "doubleSided" : true,
            "name" : "Pavimento",
            "pbrMetallicRoughness" : {
                "baseColorTexture" : {
                    "index" : 0
                },
                "metallicFactor" : 0,
                "roughnessFactor" : 0.5
            }
        },
        {
            "doubleSided" : true,
            "name" : "Arredamento.001",
            "pbrMetallicRoughness" : {
                "baseColorFactor" : [
                    0.7324767112731934,
                    0.7324767112731934,
                    0.7324767112731934,
                    1
                ],
                "metallicFactor" : 0,
                "roughnessFactor" : 0.5
            }
        },
        {
            "doubleSided" : true,
            "name" : "Contorno Scrivanie.001",
            "pbrMetallicRoughness" : {
                "baseColorFactor" : [
                    0,
                    0,
                    0,
                    1
                ],
                "metallicFactor" : 0.5233644843101501,
                "roughnessFactor" : 0.5
            }
        }
    ],
    "meshes" : [
        {
            "name" : "PAVIMENTO",
            "primitives" : [
                {
                    "attributes" : {
                        "POSITION" : 0,
                        "TEXCOORD_0" : 1,
                        "NORMAL" : 2
                    },
                    "indices" : 3,
                    "material" : 0
                }
            ]
        },
        {
            "name" : "Cubo.013",
            "primitives" : [
                {
                    "attributes" : {
                        "POSITION" : 4,
                        "TEXCOORD_0" : 5,
                        "NORMAL" : 6
                    },
                    "indices" : 7,
                    "material" : 1
                },
                {
                    "attributes" : {
                        "POSITION" : 8,
                        "TEXCOORD_0" : 9,
                        "NORMAL" : 10
                    },
                    "indices" : 11,
                    "material" : 2
                }
            ]
        },
        {
            "name" : "Cubo.230",
            "primitives" : [
                {
                    "attributes" : {
                        "POSITION" : 12,
                        "TEXCOORD_0" : 13,
                        "TEXCOORD_1" : 14,
                        "NORMAL" : 15
                    },
                    "indices" : 16,
                    "material" : 2
                },
                {
                    "attributes" : {
                        "POSITION" : 17,
                        "TEXCOORD_0" : 18,
                        "TEXCOORD_1" : 19,
                        "NORMAL" : 20
                    },
                    "indices" : 21,
                    "material" : 1
                }
            ]
        },
        {
            "name" : "Cubo.026",
            "primitives" : [
                {
                    "attributes" : {
                        "POSITION" : 22,
                        "TEXCOORD_0" : 23,
                        "NORMAL" : 24
                    },
                    "indices" : 7,
                    "material" : 1
                },
                {
                    "attributes" : {
                        "POSITION" : 25,
                        "TEXCOORD_0" : 26,
                        "NORMAL" : 27
                    },
                    "indices" : 11,
                    "material" : 2
                }
            ]
        },
        {
            "name" : "Cubo.001",
            "primitives" : [
                {
                    "attributes" : {
                        "POSITION" : 28,
                        "TEXCOORD_0" : 29,
                        "NORMAL" : 30
                    },
                    "indices" : 7,
                    "material" : 1
                },
                {
                    "attributes" : {
                        "POSITION" : 31,
                        "TEXCOORD_0" : 32,
                        "NORMAL" : 33
                    },
                    "indices" : 11,
                    "material" : 2
                }
            ]
        },
        {
            "name" : "Cubo.223",
            "primitives" : [
                {
                    "attributes" : {
                        "POSITION" : 34,
                        "TEXCOORD_0" : 35,
                        "TEXCOORD_1" : 36,
                        "NORMAL" : 37
                    },
                    "indices" : 16,
                    "material" : 2
                },
                {
                    "attributes" : {
                        "POSITION" : 38,
                        "TEXCOORD_0" : 39,
                        "TEXCOORD_1" : 40,
                        "NORMAL" : 41
                    },
                    "indices" : 21,
                    "material" : 1
                }
            ]
        }
    ],
    "textures" : [
        {
            "sampler" : 0,
            "source" : 0
        }
    ],
    "images" : [
        {
            "bufferView" : 4,
            "mimeType" : "image/png",
            "name" : "PAVIMENTO"
        }
    ],
    "accessors" : [
        {
            "bufferView" : 0,
            "componentType" : 5126,
            "count" : 8,
            "max" : [
                0.20897436141967773,
                0,
                0.5
            ],
            "min" : [
                -0.20897436141967773,
                0,
                -0.5
            ],
            "type" : "VEC3"
        },
        {
            "bufferView" : 1,
            "componentType" : 5126,
            "count" : 8,
            "type" : "VEC2"
        },
        {
            "bufferView" : 2,
            "componentType" : 5126,
            "count" : 8,
            "type" : "VEC3"
        },
        {
            "bufferView" : 3,
            "componentType" : 5123,
            "count" : 18,
            "type" : "SCALAR"
        },
        {
            "bufferView" : 5,
            "componentType" : 5126,
            "count" : 96,
            "max" : [
                126.66665649414062,
                1.0592105388641357,
                2.2433924674987793
            ],
            "min" : [
                -406.6667175292969,
                -1.0592105388641357,
                -1.1519560813903809
            ],
            "type" : "VEC3"
        },
        {
            "bufferView" : 6,
            "componentType" : 5126,
            "count" : 96,
            "type" : "VEC2"
        },
        {
            "bufferView" : 7,
            "componentType" : 5126,
            "count" : 96,
            "type" : "VEC3"
        },
        {
            "bufferView" : 8,
            "componentType" : 5123,
            "count" : 144,
            "type" : "SCALAR"
        },
        {
            "bufferView" : 9,
            "componentType" : 5126,
            "count" : 696,
            "max" : [
                138.01272583007812,
                1.063104510307312,
                2.2433924674987793
            ],
            "min" : [
                -417.5687561035156,
                -1.0632121562957764,
                -1.1603002548217773
            ],
            "type" : "VEC3"
        },
        {
            "bufferView" : 10,
            "componentType" : 5126,
            "count" : 696,
            "type" : "VEC2"
        },
        {
            "bufferView" : 11,
            "componentType" : 5126,
            "count" : 696,
            "type" : "VEC3"
        },
        {
            "bufferView" : 12,
            "componentType" : 5123,
            "count" : 3438,
            "type" : "SCALAR"
        },
        {
            "bufferView" : 13,
            "componentType" : 5126,
            "count" : 3953,
            "max" : [
                5.684849739074707,
                1.0894428491592407,
                694.8216552734375
            ],
            "min" : [
                -102.67585754394531,
                -1,
                -60.32327651977539
            ],
            "type" : "VEC3"
        },
        {
            "bufferView" : 14,
            "componentType" : 5126,
            "count" : 3953,
            "type" : "VEC2"
        },
        {
            "bufferView" : 15,
            "componentType" : 5126,
            "count" : 3953,
            "type" : "VEC2"
        },
        {
            "bufferView" : 16,
            "componentType" : 5126,
            "count" : 3953,
            "type" : "VEC3"
        },
        {
            "bufferView" : 17,
            "componentType" : 5123,
            "count" : 9051,
            "type" : "SCALAR"
        },
        {
            "bufferView" : 18,
            "componentType" : 5126,
            "count" : 204,
            "max" : [
                5.462085723876953,
                1.0843236446380615,
                682.258056640625
            ],
            "min" : [
                -101.79405212402344,
                -1,
                -50.766204833984375
            ],
            "type" : "VEC3"
        },
        {
            "bufferView" : 19,
            "componentType" : 5126,
            "count" : 204,
            "type" : "VEC2"
        },
        {
            "bufferView" : 20,
            "componentType" : 5126,
            "count" : 204,
            "type" : "VEC2"
        },
        {
            "bufferView" : 21,
            "componentType" : 5126,
            "count" : 204,
            "type" : "VEC3"
        },
        {
            "bufferView" : 22,
            "componentType" : 5123,
            "count" : 336,
            "type" : "SCALAR"
        },
        {
            "bufferView" : 23,
            "componentType" : 5126,
            "count" : 96,
            "max" : [
                126.66665649414062,
                1.0592105388641357,
                2.2433924674987793
            ],
            "min" : [
                -406.6667175292969,
                -1.0592105388641357,
                -1.1519560813903809
            ],
            "type" : "VEC3"
        },
        {
            "bufferView" : 24,
            "componentType" : 5126,
            "count" : 96,
            "type" : "VEC2"
        },
        {
            "bufferView" : 25,
            "componentType" : 5126,
            "count" : 96,
            "type" : "VEC3"
        },
        {
            "bufferView" : 26,
            "componentType" : 5126,
            "count" : 696,
            "max" : [
                138.01272583007812,
                1.063104510307312,
                2.2433924674987793
            ],
            "min" : [
                -417.5687561035156,
                -1.0632121562957764,
                -1.1603002548217773
            ],
            "type" : "VEC3"
        },
        {
            "bufferView" : 27,
            "componentType" : 5126,
            "count" : 696,
            "type" : "VEC2"
        },
        {
            "bufferView" : 28,
            "componentType" : 5126,
            "count" : 696,
            "type" : "VEC3"
        },
        {
            "bufferView" : 29,
            "componentType" : 5126,
            "count" : 96,
            "max" : [
                126.66665649414062,
                1.0592105388641357,
                2.2433924674987793
            ],
            "min" : [
                -406.6667175292969,
                -1.0592105388641357,
                -1.1519560813903809
            ],
            "type" : "VEC3"
        },
        {
            "bufferView" : 30,
            "componentType" : 5126,
            "count" : 96,
            "type" : "VEC2"
        },
        {
            "bufferView" : 31,
            "componentType" : 5126,
            "count" : 96,
            "type" : "VEC3"
        },
        {
            "bufferView" : 32,
            "componentType" : 5126,
            "count" : 696,
            "max" : [
                138.01272583007812,
                1.063104510307312,
                2.2433924674987793
            ],
            "min" : [
                -417.5687561035156,
                -1.0632121562957764,
                -1.1603002548217773
            ],
            "type" : "VEC3"
        },
        {
            "bufferView" : 33,
            "componentType" : 5126,
            "count" : 696,
            "type" : "VEC2"
        },
        {
            "bufferView" : 34,
            "componentType" : 5126,
            "count" : 696,
            "type" : "VEC3"
        },
        {
            "bufferView" : 35,
            "componentType" : 5126,
            "count" : 3953,
            "max" : [
                5.684849739074707,
                1.0894428491592407,
                694.8216552734375
            ],
            "min" : [
                -102.67585754394531,
                -1,
                -60.32327651977539
            ],
            "type" : "VEC3"
        },
        {
            "bufferView" : 36,
            "componentType" : 5126,
            "count" : 3953,
            "type" : "VEC2"
        },
        {
            "bufferView" : 37,
            "componentType" : 5126,
            "count" : 3953,
            "type" : "VEC2"
        },
        {
            "bufferView" : 38,
            "componentType" : 5126,
            "count" : 3953,
            "type" : "VEC3"
        },
        {
            "bufferView" : 39,
            "componentType" : 5126,
            "count" : 204,
            "max" : [
                5.462085723876953,
                1.0843236446380615,
                682.258056640625
            ],
            "min" : [
                -101.79405212402344,
                -1,
                -50.766204833984375
            ],
            "type" : "VEC3"
        },
        {
            "bufferView" : 40,
            "componentType" : 5126,
            "count" : 204,
            "type" : "VEC2"
        },
        {
            "bufferView" : 41,
            "componentType" : 5126,
            "count" : 204,
            "type" : "VEC2"
        },
        {
            "bufferView" : 42,
            "componentType" : 5126,
            "count" : 204,
            "type" : "VEC3"
        }
    ],
    "bufferViews" : [
        {
            "buffer" : 0,
            "byteLength" : 96,
            "byteOffset" : 0,
            "target" : 34962
        },
        {
            "buffer" : 0,
            "byteLength" : 64,
            "byteOffset" : 96,
            "target" : 34962
        },
        {
            "buffer" : 0,
            "byteLength" : 96,
            "byteOffset" : 160,
            "target" : 34962
        },
        {
            "buffer" : 0,
            "byteLength" : 36,
            "byteOffset" : 256,
            "target" : 34963
        },
        {
            "buffer" : 0,
            "byteLength" : 193513,
            "byteOffset" : 292
        },
        {
            "buffer" : 0,
            "byteLength" : 1152,
            "byteOffset" : 193808,
            "target" : 34962
        },
        {
            "buffer" : 0,
            "byteLength" : 768,
            "byteOffset" : 194960,
            "target" : 34962
        },
        {
            "buffer" : 0,
            "byteLength" : 1152,
            "byteOffset" : 195728,
            "target" : 34962
        },
        {
            "buffer" : 0,
            "byteLength" : 288,
            "byteOffset" : 196880,
            "target" : 34963
        },
        {
            "buffer" : 0,
            "byteLength" : 8352,
            "byteOffset" : 197168,
            "target" : 34962
        },
        {
            "buffer" : 0,
            "byteLength" : 5568,
            "byteOffset" : 205520,
            "target" : 34962
        },
        {
            "buffer" : 0,
            "byteLength" : 8352,
            "byteOffset" : 211088,
            "target" : 34962
        },
        {
            "buffer" : 0,
            "byteLength" : 6876,
            "byteOffset" : 219440,
            "target" : 34963
        },
        {
            "buffer" : 0,
            "byteLength" : 47436,
            "byteOffset" : 226316,
            "target" : 34962
        },
        {
            "buffer" : 0,
            "byteLength" : 31624,
            "byteOffset" : 273752,
            "target" : 34962
        },
        {
            "buffer" : 0,
            "byteLength" : 31624,
            "byteOffset" : 305376,
            "target" : 34962
        },
        {
            "buffer" : 0,
            "byteLength" : 47436,
            "byteOffset" : 337000,
            "target" : 34962
        },
        {
            "buffer" : 0,
            "byteLength" : 18102,
            "byteOffset" : 384436,
            "target" : 34963
        },
        {
            "buffer" : 0,
            "byteLength" : 2448,
            "byteOffset" : 402540,
            "target" : 34962
        },
        {
            "buffer" : 0,
            "byteLength" : 1632,
            "byteOffset" : 404988,
            "target" : 34962
        },
        {
            "buffer" : 0,
            "byteLength" : 1632,
            "byteOffset" : 406620,
            "target" : 34962
        },
        {
            "buffer" : 0,
            "byteLength" : 2448,
            "byteOffset" : 408252,
            "target" : 34962
        },
        {
            "buffer" : 0,
            "byteLength" : 672,
            "byteOffset" : 410700,
            "target" : 34963
        },
        {
            "buffer" : 0,
            "byteLength" : 1152,
            "byteOffset" : 411372,
            "target" : 34962
        },
        {
            "buffer" : 0,
            "byteLength" : 768,
            "byteOffset" : 412524,
            "target" : 34962
        },
        {
            "buffer" : 0,
            "byteLength" : 1152,
            "byteOffset" : 413292,
            "target" : 34962
        },
        {
            "buffer" : 0,
            "byteLength" : 8352,
            "byteOffset" : 414444,
            "target" : 34962
        },
        {
            "buffer" : 0,
            "byteLength" : 5568,
            "byteOffset" : 422796,
            "target" : 34962
        },
        {
            "buffer" : 0,
            "byteLength" : 8352,
            "byteOffset" : 428364,
            "target" : 34962
        },
        {
            "buffer" : 0,
            "byteLength" : 1152,
            "byteOffset" : 436716,
            "target" : 34962
        },
        {
            "buffer" : 0,
            "byteLength" : 768,
            "byteOffset" : 437868,
            "target" : 34962
        },
        {
            "buffer" : 0,
            "byteLength" : 1152,
            "byteOffset" : 438636,
            "target" : 34962
        },
        {
            "buffer" : 0,
            "byteLength" : 8352,
            "byteOffset" : 439788,
            "target" : 34962
        },
        {
            "buffer" : 0,
            "byteLength" : 5568,
            "byteOffset" : 448140,
            "target" : 34962
        },
        {
            "buffer" : 0,
            "byteLength" : 8352,
            "byteOffset" : 453708,
            "target" : 34962
        },
        {
            "buffer" : 0,
            "byteLength" : 47436,
            "byteOffset" : 462060,
            "target" : 34962
        },
        {
            "buffer" : 0,
            "byteLength" : 31624,
            "byteOffset" : 509496,
            "target" : 34962
        },
        {
            "buffer" : 0,
            "byteLength" : 31624,
            "byteOffset" : 541120,
            "target" : 34962
        },
        {
            "buffer" : 0,
            "byteLength" : 47436,
            "byteOffset" : 572744,
            "target" : 34962
        },
        {
            "buffer" : 0,
            "byteLength" : 2448,
            "byteOffset" : 620180,
            "target" : 34962
        },
        {
            "buffer" : 0,
            "byteLength" : 1632,
            "byteOffset" : 622628,
            "target" : 34962
        },
        {
            "buffer" : 0,
            "byteLength" : 1632,
            "byteOffset" : 624260,
            "target" : 34962
        },
        {
            "buffer" : 0,
            "byteLength" : 2448,
            "byteOffset" : 625892,
            "target" : 34962
        }
    ],
    "samplers" : [
        {
            "magFilter" : 9729,
            "minFilter" : 9987,
            "wrapS" : 33071,
            "wrapT" : 33071
        }
    ],
    "buffers" : [
        {
            "byteLength" : 628340,
            "uri" : "data:application/octet-stream;base64,"
        }
    ]
}
