{
    "asset" : {
        "generator" : "Khronos glTF Blender I/O v3.4.50",
        "version" : "2.0"
    },
    "extensionsUsed" : [
        "KHR_materials_transmission",
        "KHR_materials_ior"
    ],
    "scene" : 0,
    "scenes" : [
        {
            "name" : "Scene",
            "nodes" : [
                0
            ]
        }
    ],
    "nodes" : [
        {
            "mesh" : 0,
            "name" : "Armadio Vetrina Anta Sx",
            "rotation" : [
                0.5,
                -0.5,
                -0.5,
                0.5
            ],
            "scale" : [
                0.6600000262260437,
                0.007499999832361937,
                0.22499999403953552
            ],
            "translation" : [
                0.5710169076919556,
                1.4263399839401245,
                4.605710029602051
            ]
        }
    ],
    "materials" : [
        {
            "doubleSided" : true,
            "extensions" : {
                "KHR_materials_transmission" : {
                    "transmissionFactor" : 1,
                    "transmissionTexture" : {
                        "index" : 0
                    }
                },
                "KHR_materials_ior" : {
                    "ior" : 1.4500000476837158
                }
            },
            "name" : "vetro eevee",
            "pbrMetallicRoughness" : {
                "baseColorTexture" : {
                    "index" : 1
                },
                "metallicRoughnessTexture" : {
                    "index" : 2
                }
            }
        },
        {
            "doubleSided" : true,
            "name" : "Contorno Scrivanie",
            "pbrMetallicRoughness" : {
                "baseColorFactor" : [
                    0,
                    0,
                    0,
                    1
                ],
                "metallicFactor" : 0.5233644843101501,
                "roughnessFactor" : 0.5
            }
        }
    ],
    "meshes" : [
        {
            "name" : "Cubo.052",
            "primitives" : [
                {
                    "attributes" : {
                        "POSITION" : 0,
                        "TEXCOORD_0" : 1,
                        "NORMAL" : 2
                    },
                    "indices" : 3,
                    "material" : 0
                },
                {
                    "attributes" : {
                        "POSITION" : 4,
                        "TEXCOORD_0" : 5,
                        "NORMAL" : 6
                    },
                    "indices" : 7,
                    "material" : 1
                }
            ]
        }
    ],
    "textures" : [
        {
            "sampler" : 0,
            "source" : 0
        },
        {
            "sampler" : 0,
            "source" : 1
        },
        {
            "sampler" : 0,
            "source" : 2
        }
    ],
    "images" : [
        {
            "bufferView" : 4,
            "mimeType" : "image/png",
            "name" : "Armadio Vetrina Anta Sx_transmission"
        },
        {
            "bufferView" : 5,
            "mimeType" : "image/png",
            "name" : "Armadio Vetrina Anta Sx_color-Armadio Vetrina Anta Sx_alpha"
        },
        {
            "bufferView" : 6,
            "mimeType" : "image/png",
            "name" : "Armadio Vetrina Anta Sx_metallic-Armadio Vetrina Anta Sx_roughness"
        }
    ],
    "accessors" : [
        {
            "bufferView" : 0,
            "componentType" : 5126,
            "count" : 24,
            "max" : [
                1,
                1,
                1
            ],
            "min" : [
                -1,
                -1,
                -1
            ],
            "type" : "VEC3"
        },
        {
            "bufferView" : 1,
            "componentType" : 5126,
            "count" : 24,
            "type" : "VEC2"
        },
        {
            "bufferView" : 2,
            "componentType" : 5126,
            "count" : 24,
            "type" : "VEC3"
        },
        {
            "bufferView" : 3,
            "componentType" : 5123,
            "count" : 36,
            "type" : "SCALAR"
        },
        {
            "bufferView" : 7,
            "componentType" : 5126,
            "count" : 1754,
            "max" : [
                0.9157136082649231,
                -0.8985474109649658,
                0.801062285900116
            ],
            "min" : [
                -0.9063001275062561,
                -3.5652146339416504,
                -0.9810249209403992
            ],
            "type" : "VEC3"
        },
        {
            "bufferView" : 8,
            "componentType" : 5126,
            "count" : 1754,
            "type" : "VEC2"
        },
        {
            "bufferView" : 9,
            "componentType" : 5126,
            "count" : 1754,
            "type" : "VEC3"
        },
        {
            "bufferView" : 10,
            "componentType" : 5123,
            "count" : 9240,
            "type" : "SCALAR"
        }
    ],
    "bufferViews" : [
        {
            "buffer" : 0,
            "byteLength" : 288,
            "byteOffset" : 0,
            "target" : 34962
        },
        {
            "buffer" : 0,
            "byteLength" : 192,
            "byteOffset" : 288,
            "target" : 34962
        },
        {
            "buffer" : 0,
            "byteLength" : 288,
            "byteOffset" : 480,
            "target" : 34962
        },
        {
            "buffer" : 0,
            "byteLength" : 72,
            "byteOffset" : 768,
            "target" : 34963
        },
        {
            "buffer" : 0,
            "byteLength" : 13835,
            "byteOffset" : 840
        },
        {
            "buffer" : 0,
            "byteLength" : 18418,
            "byteOffset" : 14676
        },
        {
            "buffer" : 0,
            "byteLength" : 15796,
            "byteOffset" : 33096
        },
        {
            "buffer" : 0,
            "byteLength" : 21048,
            "byteOffset" : 48892,
            "target" : 34962
        },
        {
            "buffer" : 0,
            "byteLength" : 14032,
            "byteOffset" : 69940,
            "target" : 34962
        },
        {
            "buffer" : 0,
            "byteLength" : 21048,
            "byteOffset" : 83972,
            "target" : 34962
        },
        {
            "buffer" : 0,
            "byteLength" : 18480,
            "byteOffset" : 105020,
            "target" : 34963
        }
    ],
    "samplers" : [
        {
            "magFilter" : 9729,
            "minFilter" : 9987
        }
    ],
    "buffers" : [
        {
            "byteLength" : 123500,
            "uri" : "data:application/octet-stream;base64,"
        }
    ]
}
